<svg width="628" height="685" viewBox="0 0 628 685" fill="none" xmlns="http://www.w3.org/2000/svg">
<g opacity="0.15">
<path opacity="0.15" d="M3.17442 604.108L106.767 662.058C111.284 664.706 119.385 664.394 124.681 661.279L159.108 640.716C164.405 637.6 165.028 632.927 160.355 630.279L57.2294 571.083C52.7119 568.435 44.6114 568.746 39.3149 571.862L4.42062 593.515C-0.875824 596.786 -1.49892 601.46 3.17442 604.108Z" fill="#BDCEFA"/>
<path opacity="0.15" d="M46.1685 553.48L149.761 611.43C154.279 614.078 162.379 613.766 167.675 610.651L202.102 590.088C207.399 586.972 208.022 582.299 203.349 579.651L100.224 520.455C95.706 517.807 87.6055 518.118 82.309 521.234L47.4147 542.887C42.274 546.159 41.6509 550.832 46.1685 553.48Z" fill="#BDCEFA"/>
<path opacity="0.15" d="M21.3997 467.802L333.891 642.118C347.755 650.063 372.057 649.128 388.102 639.937L570.207 534.787C586.252 525.596 587.965 511.42 574.101 503.475L261.61 329.159C247.746 321.215 223.444 322.149 207.399 331.34L25.2941 436.491C9.40472 445.837 7.5354 459.857 21.3997 467.802Z" fill="#BDCEFA"/>
</g>
<path d="M624.261 233.667C625.975 233.667 628 232.265 628 229.929V151.884C628 150.638 627.221 149.391 626.131 148.768L532.196 94.5574C531.573 94.2458 530.95 94.09 530.327 94.09C528.613 94.09 526.588 95.492 526.588 97.8287V175.874C526.588 177.12 527.367 178.366 528.458 178.989L622.392 233.2C623.015 233.512 623.638 233.667 624.261 233.667Z" fill="url(#paint0_linear_906_11256)"/>
<path d="M554.161 347.074C557.9 347.074 562.106 344.114 562.106 339.129V172.135C562.106 169.331 560.548 166.683 558.212 165.281L357.258 49.3817C356.011 48.6028 354.765 48.2913 353.363 48.2913C349.624 48.2913 345.418 51.251 345.418 56.2359V223.386C345.418 226.19 346.976 228.838 349.313 230.24L550.267 345.983C551.513 346.762 552.759 347.074 554.161 347.074Z" fill="url(#paint1_linear_906_11256)"/>
<path d="M395.89 123.844C397.448 123.844 399.161 122.597 399.161 120.572V51.4068C399.161 50.3164 398.538 49.2259 397.603 48.6028L314.418 0.467336C313.95 0.15578 313.327 0 312.86 0C311.302 0 309.589 1.24623 309.589 3.27134V72.4369C309.589 73.5273 310.212 74.6178 311.146 75.2409L394.332 123.221C394.799 123.688 395.422 123.844 395.89 123.844Z" fill="url(#paint2_linear_906_11256)"/>
<path d="M589.99 398.948C591.548 398.948 593.262 397.702 593.262 395.677V326.511C593.262 325.421 592.639 324.33 591.704 323.707L508.518 275.727C508.051 275.416 507.428 275.26 506.961 275.26C505.403 275.26 503.689 276.506 503.689 278.531V347.697C503.689 348.787 504.312 349.878 505.247 350.501L588.433 398.481C588.9 398.792 589.523 398.948 589.99 398.948Z" fill="url(#paint3_linear_906_11256)"/>
<path d="M360.343 140C358.213 136.462 358.16 132.586 360.224 131.344C362.288 130.102 365.688 131.963 367.817 135.501C369.947 139.04 370 142.915 367.936 144.157C365.872 145.4 362.473 143.538 360.343 140Z" fill="#BDCEFA"/>
<path d="M340.122 123.844C340.122 127.115 342.459 131.321 345.418 132.879C348.378 134.592 350.715 133.19 350.715 129.919C350.715 126.648 348.378 122.442 345.418 120.884C342.459 119.17 340.122 120.572 340.122 123.844Z" fill="#BDCEFA"/>
<path d="M321.272 113.095C321.272 116.366 323.609 120.572 326.569 122.13C329.529 123.688 331.865 122.442 331.865 119.17C331.865 115.899 329.529 111.693 326.569 110.135C323.765 108.422 321.272 109.668 321.272 113.095Z" fill="#BDCEFA"/>
<path d="M467.082 128.517L444.026 134.904C443.247 135.06 442.157 134.437 441.534 133.502L418.479 100.633L467.082 128.517Z" fill="#BDCEFA"/>
<path d="M450.724 135.371L466.769 161.854C467.081 161.542 467.237 161.075 467.237 160.452V130.854L450.724 135.371Z" fill="#BDCEFA"/>
<path d="M436.237 128.361L420.036 136.462C420.503 136.929 420.97 137.396 421.594 137.708L463.654 162.009C464.121 162.321 464.588 162.477 465.056 162.477L449.011 135.839L442.624 137.552L436.237 128.361Z" fill="#BDCEFA"/>
<path d="M418.322 102.658V132.256C418.322 132.879 418.478 133.502 418.79 134.125L434.679 126.025L418.322 102.658Z" fill="#BDCEFA"/>
<path d="M257.091 142.537C257.247 142.537 257.403 142.381 257.403 142.226V27.7285L413.337 117.924C413.493 118.08 413.804 117.924 413.804 117.768C413.96 117.613 413.804 117.301 413.648 117.301L256.624 26.4823V142.381C256.624 142.381 256.78 142.537 257.091 142.537Z" fill="#BDCEFA"/>
<path d="M246.654 143.005C247.122 143.005 247.434 142.694 247.434 142.226V142.07C247.434 141.603 247.122 141.291 246.654 141.291C246.187 141.291 245.875 141.603 245.875 142.07C245.875 142.694 246.187 143.005 246.654 143.005Z" fill="#BDCEFA"/>
<path d="M246.655 137.085C247.122 137.085 247.434 136.773 247.434 136.306V136.15C247.434 135.683 247.122 135.371 246.655 135.371C246.187 135.371 245.876 135.683 245.876 136.15C245.876 136.618 246.187 137.085 246.655 137.085ZM246.655 131.01C247.122 131.01 247.434 130.698 247.434 130.231V130.075C247.434 129.608 247.122 129.296 246.655 129.296C246.187 129.296 245.876 129.608 245.876 130.075C245.876 130.542 246.187 131.01 246.655 131.01ZM246.655 124.934C247.122 124.934 247.434 124.623 247.434 124.155C247.434 123.688 247.122 123.376 246.655 123.376C246.187 123.376 245.876 123.688 245.876 124.155C245.876 124.467 246.187 124.934 246.655 124.934ZM246.655 118.859C247.122 118.859 247.434 118.547 247.434 118.08V117.924C247.434 117.457 247.122 117.145 246.655 117.145C246.187 117.145 245.876 117.457 245.876 117.924C245.876 118.547 246.187 118.859 246.655 118.859ZM246.655 112.939C247.122 112.939 247.434 112.628 247.434 112.16V112.005C247.434 111.537 247.122 111.226 246.655 111.226C246.187 111.226 245.876 111.537 245.876 112.005C245.876 112.472 246.187 112.939 246.655 112.939ZM246.655 106.864C247.122 106.864 247.434 106.552 247.434 106.085V105.929C247.434 105.462 247.122 105.15 246.655 105.15C246.187 105.15 245.876 105.462 245.876 105.929C245.876 106.397 246.187 106.864 246.655 106.864ZM246.655 100.789C247.122 100.789 247.434 100.477 247.434 100.01V99.8539C247.434 99.3865 247.122 99.075 246.655 99.075C246.187 99.075 245.876 99.3865 245.876 99.8539C245.876 100.321 246.187 100.789 246.655 100.789Z" fill="#BDCEFA"/>
<path d="M246.654 94.8698C246.966 94.8698 247.122 94.7139 247.278 94.5581C247.278 94.5581 247.278 94.5581 247.278 94.4022C247.434 94.0905 247.434 93.6229 246.966 93.3112C246.654 93.1554 246.343 93.1554 246.187 93.3112C245.875 93.4671 245.719 93.6229 245.719 93.9347C245.875 94.4022 246.187 94.8698 246.654 94.8698Z" fill="#BDCEFA"/>
<path d="M469.572 219.18C469.884 219.18 470.039 219.024 470.195 218.713C470.351 218.401 470.195 217.934 469.884 217.622H469.728C469.416 217.467 468.949 217.622 468.637 217.934C468.482 218.246 468.637 218.713 468.949 219.024H469.105C469.261 219.18 469.416 219.18 469.572 219.18ZM463.964 216.065C464.276 216.065 464.431 215.909 464.587 215.597C464.743 215.286 464.587 214.818 464.276 214.507H464.12C463.808 214.351 463.341 214.507 463.029 214.818C462.874 215.13 463.029 215.597 463.341 215.909H463.497C463.653 216.065 463.808 216.065 463.964 216.065ZM458.356 212.949C458.668 212.949 458.823 212.793 458.979 212.482C459.135 212.17 458.979 211.703 458.668 211.391C458.356 211.236 457.733 211.236 457.577 211.703C457.421 212.014 457.421 212.482 457.733 212.793H457.889C458.045 212.949 458.2 212.949 458.356 212.949ZM452.748 209.834C453.06 209.834 453.215 209.678 453.371 209.366C453.527 209.055 453.371 208.587 453.06 208.276H452.904C452.592 208.12 452.125 208.276 451.813 208.587C451.658 208.899 451.813 209.366 452.125 209.678H452.281C452.592 209.834 452.592 209.834 452.748 209.834ZM447.14 206.718C447.452 206.718 447.607 206.562 447.763 206.251C447.919 205.939 447.763 205.472 447.452 205.16H447.296C446.984 205.004 446.517 205.16 446.205 205.472C446.05 205.783 446.205 206.251 446.517 206.562H446.673C446.984 206.718 447.14 206.718 447.14 206.718ZM441.688 203.602C441.999 203.602 442.155 203.447 442.311 203.135C442.467 202.824 442.311 202.356 441.999 202.045C441.688 201.889 441.065 201.889 440.909 202.356C440.753 202.668 440.753 203.135 441.065 203.447H441.22C441.376 203.602 441.532 203.602 441.688 203.602ZM436.08 200.487C436.391 200.487 436.547 200.331 436.703 200.02C436.859 199.708 436.703 199.241 436.391 198.929C436.08 198.773 435.457 198.773 435.301 199.241C435.145 199.552 435.145 200.02 435.457 200.331H435.612C435.768 200.487 435.924 200.487 436.08 200.487ZM430.472 197.371C430.783 197.371 430.939 197.216 431.095 196.904C431.251 196.592 431.095 196.125 430.783 195.814H430.628C430.316 195.658 429.849 195.814 429.537 196.125C429.381 196.437 429.537 196.904 429.849 197.216H430.004C430.316 197.371 430.316 197.371 430.472 197.371ZM424.864 194.256C425.175 194.256 425.331 194.1 425.487 193.788C425.643 193.477 425.487 193.01 425.175 192.698H425.02C424.708 192.542 424.241 192.698 423.929 193.01C423.773 193.321 423.929 193.788 424.241 194.1H424.396C424.708 194.256 424.864 194.256 424.864 194.256ZM419.412 191.14C419.723 191.14 419.879 190.984 420.035 190.673C420.19 190.361 420.035 189.894 419.723 189.582C419.412 189.427 418.788 189.427 418.633 189.894C418.477 190.205 418.477 190.673 418.944 190.984H419.1C419.1 191.14 419.256 191.14 419.412 191.14ZM413.804 188.025C414.115 188.025 414.271 187.869 414.427 187.557C414.582 187.246 414.427 186.778 414.115 186.467C413.804 186.311 413.18 186.311 413.025 186.778C412.869 187.09 412.869 187.557 413.336 187.869H413.492C413.492 188.025 413.648 188.025 413.804 188.025ZM408.195 184.909C408.507 184.909 408.663 184.753 408.819 184.442C408.974 184.13 408.819 183.663 408.507 183.351C408.195 183.195 407.572 183.195 407.417 183.663C407.261 183.974 407.261 184.442 407.728 184.753H407.884C408.04 184.909 408.04 184.909 408.195 184.909ZM402.587 181.793C402.899 181.793 403.055 181.638 403.211 181.326C403.366 181.015 403.211 180.547 402.899 180.236C402.587 180.08 401.964 180.08 401.809 180.547C401.653 180.859 401.653 181.326 402.12 181.638H402.276C402.432 181.793 402.587 181.793 402.587 181.793ZM397.135 178.834C397.447 178.834 397.603 178.678 397.758 178.366C397.914 178.055 397.758 177.587 397.447 177.276C397.135 177.12 396.512 177.12 396.356 177.587C396.201 177.899 396.201 178.366 396.668 178.678H396.824C396.824 178.678 396.979 178.834 397.135 178.834ZM391.527 175.718C391.839 175.718 391.995 175.562 392.15 175.251C392.306 174.939 392.15 174.472 391.839 174.16C391.527 174.005 390.904 174.005 390.748 174.472C390.593 174.783 390.593 175.251 391.06 175.562H391.216C391.216 175.562 391.371 175.718 391.527 175.718ZM385.919 172.603C386.231 172.603 386.387 172.447 386.542 172.135C386.698 171.824 386.542 171.356 386.231 171.045H386.075C385.763 170.889 385.296 171.045 384.985 171.356C384.829 171.668 384.985 172.135 385.296 172.447H385.452C385.763 172.447 385.763 172.603 385.919 172.603ZM380.311 169.487C380.623 169.487 380.779 169.331 380.934 169.02C381.09 168.708 380.934 168.241 380.623 167.929C380.311 167.773 379.688 167.773 379.532 168.241C379.377 168.552 379.377 169.02 379.688 169.331H379.844C380.155 169.331 380.311 169.487 380.311 169.487ZM374.859 166.371C375.171 166.371 375.326 166.216 375.482 165.904C375.638 165.593 375.482 165.125 375.171 164.814H375.015C374.703 164.658 374.236 164.814 373.924 165.125C373.769 165.437 373.924 165.904 374.236 166.216H374.392C374.547 166.216 374.703 166.371 374.859 166.371ZM369.251 163.256C369.562 163.256 369.718 163.1 369.874 162.789C370.03 162.477 369.874 162.01 369.562 161.698H369.407C369.095 161.542 368.628 161.698 368.316 162.01C368.16 162.321 368.316 162.789 368.628 163.1H368.784C368.939 163.256 369.095 163.256 369.251 163.256ZM363.643 160.14C363.954 160.14 364.11 159.985 364.266 159.673C364.422 159.361 364.266 158.894 363.954 158.583C363.643 158.427 363.02 158.427 362.864 158.894C362.708 159.206 362.708 159.673 363.02 159.985H363.176C363.331 160.14 363.487 160.14 363.643 160.14ZM358.035 157.025C358.346 157.025 358.502 156.869 358.658 156.557C358.814 156.246 358.658 155.779 358.346 155.467C358.035 155.311 357.412 155.311 357.256 155.779C357.1 156.09 357.1 156.557 357.412 156.869H357.568C357.879 157.025 358.035 157.025 358.035 157.025ZM352.583 153.909C352.894 153.909 353.05 153.753 353.206 153.442C353.362 153.13 353.206 152.663 352.894 152.351H352.738C352.427 152.196 351.96 152.351 351.648 152.663C351.492 152.975 351.648 153.442 351.96 153.753H352.115C352.271 153.909 352.427 153.909 352.583 153.909ZM346.975 150.794C347.286 150.794 347.442 150.638 347.598 150.326C347.754 150.015 347.598 149.547 347.286 149.236H347.13C346.819 149.08 346.352 149.236 346.04 149.547C345.884 149.859 346.04 150.326 346.352 150.638H346.507C346.663 150.794 346.819 150.794 346.975 150.794ZM341.367 147.678C341.678 147.678 341.834 147.522 341.99 147.211C342.146 146.899 341.99 146.432 341.678 146.12C341.367 145.964 340.744 145.964 340.588 146.432C340.432 146.743 340.432 147.211 340.744 147.522H340.899C341.055 147.678 341.211 147.678 341.367 147.678ZM335.759 144.562C336.07 144.562 336.226 144.407 336.382 144.095C336.538 143.784 336.382 143.316 336.07 143.005C335.759 142.849 335.135 142.849 334.98 143.316C334.824 143.628 334.824 144.095 335.135 144.407H335.291C335.603 144.562 335.759 144.562 335.759 144.562ZM330.306 141.447C330.618 141.447 330.774 141.291 330.93 140.98C331.085 140.668 330.929 140.201 330.618 139.889H330.462C330.151 139.733 329.683 139.889 329.372 140.201C329.216 140.512 329.372 140.98 329.683 141.291H329.839C329.995 141.447 330.151 141.447 330.306 141.447ZM324.698 138.331C325.01 138.331 325.166 138.176 325.321 137.864C325.477 137.552 325.321 137.085 325.01 136.774H324.854C324.543 136.618 324.075 136.774 323.764 137.085C323.608 137.397 323.764 137.864 324.075 138.176H324.231C324.387 138.331 324.543 138.331 324.698 138.331ZM319.09 135.216C319.402 135.216 319.558 135.06 319.713 134.748C319.869 134.437 319.713 133.97 319.402 133.658C319.09 133.502 318.467 133.502 318.311 133.97C318.156 134.281 318.156 134.748 318.467 135.06H318.623C318.779 135.216 318.935 135.216 319.09 135.216ZM313.482 132.1C313.794 132.1 313.95 131.944 314.105 131.633C314.261 131.321 314.105 130.854 313.794 130.542C313.482 130.387 312.859 130.387 312.703 130.854C312.548 131.166 312.548 131.633 312.859 131.944H313.015C313.327 132.1 313.482 132.1 313.482 132.1ZM308.03 128.985C308.342 128.985 308.497 128.829 308.653 128.517C308.809 128.206 308.653 127.738 308.342 127.427C308.03 127.271 307.407 127.271 307.251 127.738C307.095 128.05 307.095 128.517 307.563 128.829H307.719C307.719 128.985 307.874 128.985 308.03 128.985ZM302.422 125.869C302.734 125.869 302.889 125.713 303.045 125.402C303.201 125.09 303.045 124.623 302.734 124.311H302.578C302.266 124.156 301.799 124.311 301.487 124.623C301.332 124.934 301.487 125.402 301.799 125.713H301.955C302.111 125.869 302.266 125.869 302.422 125.869ZM296.814 122.754C297.126 122.754 297.281 122.598 297.437 122.286C297.593 121.975 297.437 121.507 297.126 121.196C296.814 121.04 296.191 121.04 296.035 121.507C295.879 121.819 295.879 122.286 296.347 122.598H296.503C296.503 122.754 296.658 122.754 296.814 122.754ZM291.206 119.638C291.518 119.638 291.673 119.482 291.829 119.171C291.985 118.859 291.829 118.392 291.518 118.08C291.206 117.924 290.583 117.924 290.427 118.392C290.271 118.703 290.271 119.171 290.739 119.482H290.894C291.05 119.638 291.206 119.638 291.206 119.638ZM285.754 116.522C286.065 116.522 286.221 116.367 286.377 116.055C286.533 115.744 286.377 115.276 286.065 114.965C285.754 114.809 285.131 114.809 284.975 115.276C284.819 115.588 284.819 116.055 285.286 116.367H285.442C285.442 116.522 285.598 116.522 285.754 116.522ZM280.146 113.407C280.457 113.407 280.613 113.251 280.769 112.94C280.925 112.628 280.769 112.161 280.457 111.849C280.146 111.693 279.523 111.693 279.367 112.161C279.211 112.472 279.211 112.94 279.678 113.251H279.834C279.834 113.407 279.99 113.407 280.146 113.407ZM274.538 110.291C274.849 110.291 275.005 110.136 275.161 109.824C275.317 109.512 275.161 109.045 274.849 108.733H274.694C274.382 108.578 273.915 108.734 273.603 109.045C273.447 109.357 273.603 109.824 273.915 110.135H274.07C274.226 110.291 274.382 110.291 274.538 110.291ZM268.93 107.176C269.241 107.176 269.397 107.02 269.553 106.708C269.709 106.397 269.553 105.929 269.241 105.618C268.93 105.462 268.307 105.462 268.151 105.929C267.995 106.241 267.995 106.708 268.307 107.02H268.462C268.774 107.176 268.774 107.176 268.93 107.176ZM263.477 104.06C263.789 104.06 263.945 103.904 264.101 103.593C264.256 103.281 264.101 102.814 263.789 102.502C263.478 102.347 262.854 102.347 262.699 102.814C262.543 103.125 262.543 103.593 262.854 103.904H263.01C263.166 104.06 263.322 104.06 263.477 104.06ZM257.87 101.1C258.181 101.1 258.337 100.945 258.493 100.633C258.648 100.321 258.493 99.8541 258.181 99.5426H258.025C257.714 99.3868 257.246 99.5426 256.935 99.8541C256.779 100.166 256.935 100.633 257.246 100.945H257.402C257.558 100.945 257.714 101.1 257.87 101.1ZM252.261 97.9848C252.573 97.9848 252.729 97.829 252.885 97.5175C253.04 97.2059 252.885 96.7386 252.573 96.427C252.261 96.2712 251.638 96.2712 251.483 96.7386C251.327 97.0501 251.327 97.5175 251.638 97.829H251.794C251.95 97.829 252.106 97.9848 252.261 97.9848Z" fill="#BDCEFA"/>
<path d="M475.025 222.296C475.492 222.296 475.804 221.985 475.804 221.517C475.804 221.205 475.648 220.894 475.337 220.738C475.025 220.582 474.402 220.582 474.246 221.049C474.09 221.361 474.09 221.829 474.401 221.985C474.557 222.14 474.713 222.296 475.025 222.296Z" fill="#BDCEFA"/>
<path d="M475.025 268.718C475.493 268.718 475.804 268.406 475.804 267.939V267.783C475.804 267.315 475.493 267.004 475.025 267.004C474.558 267.004 474.246 267.315 474.246 267.783V267.939C474.246 268.25 474.558 268.718 475.025 268.718ZM475.025 262.019C475.493 262.019 475.804 261.707 475.804 261.24V261.084C475.804 260.617 475.493 260.305 475.025 260.305C474.558 260.305 474.246 260.617 474.246 261.084V261.24C474.246 261.707 474.558 262.019 475.025 262.019ZM475.025 255.476C475.493 255.476 475.804 255.165 475.804 254.697V254.542C475.804 254.074 475.493 253.763 475.025 253.763C474.558 253.763 474.246 254.074 474.246 254.542V254.697C474.246 255.009 474.558 255.476 475.025 255.476ZM475.025 248.778C475.493 248.778 475.804 248.466 475.804 247.999V247.843C475.804 247.376 475.493 247.064 475.025 247.064C474.558 247.064 474.246 247.376 474.246 247.843V247.999C474.246 248.466 474.558 248.778 475.025 248.778ZM475.025 242.235C475.493 242.235 475.804 241.924 475.804 241.456V241.301C475.804 240.833 475.493 240.522 475.025 240.522C474.558 240.522 474.246 240.833 474.246 241.301V241.456C474.246 241.768 474.558 242.235 475.025 242.235ZM475.025 235.537C475.493 235.537 475.804 235.225 475.804 234.758V234.602C475.804 234.135 475.493 233.823 475.025 233.823C474.558 233.823 474.246 234.135 474.246 234.602V234.758C474.246 235.225 474.558 235.537 475.025 235.537ZM475.025 228.994C475.493 228.994 475.804 228.682 475.804 228.215V228.059C475.804 227.592 475.493 227.28 475.025 227.28C474.558 227.28 474.246 227.592 474.246 228.059V228.215C474.246 228.527 474.558 228.994 475.025 228.994Z" fill="#BDCEFA"/>
<path d="M475.025 275.261C475.492 275.261 475.804 274.949 475.804 274.482C475.804 274.014 475.492 273.702 475.025 273.702C474.557 273.702 474.246 274.014 474.246 274.482C474.246 274.793 474.557 275.261 475.025 275.261Z" fill="#BDCEFA"/>
<path d="M572.541 305.948C572.697 305.948 572.853 305.793 572.853 305.637V243.326L572.697 243.17L536.089 223.853C535.934 223.697 535.622 223.853 535.622 224.009C535.466 224.165 535.622 224.476 535.778 224.476L572.074 243.793V305.637C572.23 305.793 572.386 305.948 572.541 305.948Z" fill="#BDCEFA"/>
<path d="M546.215 406.114C546.682 406.114 546.994 405.802 546.994 405.335V405.179C546.994 404.712 546.682 404.4 546.215 404.4C545.747 404.4 545.436 404.712 545.436 405.179C545.436 405.647 545.903 406.114 546.215 406.114ZM546.215 399.727C546.682 399.727 546.994 399.415 546.994 398.948V398.792C546.994 398.325 546.682 398.013 546.215 398.013C545.747 398.013 545.436 398.325 545.436 398.792V398.948C545.436 399.415 545.903 399.727 546.215 399.727ZM546.215 393.34C546.682 393.34 546.994 393.029 546.994 392.561V392.405C546.994 391.938 546.682 391.627 546.215 391.627C545.747 391.627 545.436 391.938 545.436 392.405C545.436 392.873 545.903 393.34 546.215 393.34ZM546.215 386.953C546.682 386.953 546.994 386.642 546.994 386.174V386.019C546.994 385.551 546.682 385.24 546.215 385.24C545.747 385.24 545.436 385.551 545.436 386.019V386.174C545.436 386.642 545.903 386.953 546.215 386.953ZM546.215 380.566C546.682 380.566 546.994 380.255 546.994 379.787V379.632C546.994 379.164 546.682 378.853 546.215 378.853C545.747 378.853 545.436 379.164 545.436 379.632C545.436 380.099 545.903 380.566 546.215 380.566ZM546.215 374.179C546.682 374.179 546.994 373.868 546.994 373.4V373.245C546.994 372.777 546.682 372.466 546.215 372.466C545.747 372.466 545.436 372.777 545.436 373.245C545.436 373.712 545.903 374.179 546.215 374.179ZM546.215 367.792C546.682 367.792 546.994 367.481 546.994 367.014V366.858C546.994 366.39 546.682 366.079 546.215 366.079C545.747 366.079 545.436 366.39 545.436 366.858V367.014C545.436 367.481 545.903 367.792 546.215 367.792ZM546.215 361.406C546.682 361.406 546.994 361.094 546.994 360.627V360.471C546.994 360.004 546.682 359.692 546.215 359.692C545.747 359.692 545.436 360.004 545.436 360.471C545.436 360.938 545.903 361.406 546.215 361.406ZM546.215 355.019C546.682 355.019 546.994 354.707 546.994 354.24V354.084C546.994 353.617 546.682 353.305 546.215 353.305C545.747 353.305 545.436 353.617 545.436 354.084V354.24C545.436 354.707 545.903 355.019 546.215 355.019ZM546.215 348.632C546.682 348.632 546.994 348.32 546.994 347.853V347.697C546.994 347.23 546.682 346.918 546.215 346.918C545.747 346.918 545.436 347.23 545.436 347.697C545.436 348.164 545.903 348.632 546.215 348.632ZM546.215 342.245C546.682 342.245 546.994 341.933 546.994 341.466V341.31C546.994 340.843 546.682 340.531 546.215 340.531C545.747 340.531 545.436 340.843 545.436 341.31V341.466C545.436 341.933 545.903 342.245 546.215 342.245ZM546.215 335.858C546.682 335.858 546.994 335.546 546.994 335.079V334.923C546.994 334.456 546.682 334.144 546.215 334.144C545.747 334.144 545.436 334.456 545.436 334.923V335.079C545.436 335.546 545.903 335.858 546.215 335.858ZM546.215 329.471C546.682 329.471 546.994 329.159 546.994 328.692V328.536C546.994 328.069 546.682 327.757 546.215 327.757C545.747 327.757 545.436 328.069 545.436 328.536C545.436 329.004 545.903 329.471 546.215 329.471ZM546.215 323.084C546.682 323.084 546.994 322.773 546.994 322.305V322.149C546.994 321.682 546.682 321.371 546.215 321.371C545.747 321.371 545.436 321.682 545.436 322.149V322.305C545.436 322.773 545.903 323.084 546.215 323.084ZM546.215 316.697C546.682 316.697 546.994 316.386 546.994 315.918V315.763C546.994 315.295 546.682 314.984 546.215 314.984C545.747 314.984 545.436 315.295 545.436 315.763V315.918C545.436 316.386 545.903 316.697 546.215 316.697ZM546.215 310.31C546.682 310.31 546.994 309.999 546.994 309.531V309.376C546.994 308.908 546.682 308.597 546.215 308.597C545.747 308.597 545.436 308.908 545.436 309.376V309.531C545.436 309.999 545.903 310.31 546.215 310.31ZM546.215 303.923C546.682 303.923 546.994 303.612 546.994 303.144V302.989C546.994 302.521 546.682 302.21 546.215 302.21C545.747 302.21 545.436 302.521 545.436 302.989V303.144C545.436 303.612 545.903 303.923 546.215 303.923ZM546.215 297.536C546.682 297.536 546.994 297.225 546.994 296.758V296.602C546.994 296.134 546.682 295.823 546.215 295.823C545.747 295.823 545.436 296.134 545.436 296.602C545.436 297.069 545.903 297.536 546.215 297.536ZM546.215 291.15C546.682 291.15 546.994 290.838 546.994 290.371V290.215C546.994 289.748 546.682 289.436 546.215 289.436C545.747 289.436 545.436 289.748 545.436 290.215V290.371C545.436 290.838 545.903 291.15 546.215 291.15ZM546.215 284.763C546.682 284.763 546.994 284.451 546.994 283.984V283.828C546.994 283.361 546.682 283.049 546.215 283.049C545.747 283.049 545.436 283.361 545.436 283.828V283.984C545.436 284.451 545.903 284.763 546.215 284.763ZM546.215 278.376C546.682 278.376 546.994 278.064 546.994 277.597V277.441C546.994 276.974 546.682 276.662 546.215 276.662C545.747 276.662 545.436 276.974 545.436 277.441V277.597C545.436 278.064 545.903 278.376 546.215 278.376ZM546.215 271.989C546.682 271.989 546.994 271.677 546.994 271.21V271.054C546.994 270.587 546.682 270.275 546.215 270.275C545.747 270.275 545.436 270.587 545.436 271.054V271.21C545.436 271.677 545.903 271.989 546.215 271.989ZM546.215 265.602C546.682 265.602 546.994 265.29 546.994 264.823V264.667C546.994 264.2 546.682 263.888 546.215 263.888C545.747 263.888 545.436 264.2 545.436 264.667C545.436 265.135 545.903 265.602 546.215 265.602ZM546.215 259.215C546.682 259.215 546.994 258.903 546.994 258.436V258.28C546.994 257.813 546.682 257.501 546.215 257.501C545.747 257.501 545.436 257.813 545.436 258.28V258.436C545.436 258.903 545.903 259.215 546.215 259.215ZM546.215 252.828C546.682 252.828 546.994 252.517 546.994 252.049V251.893C546.994 251.426 546.682 251.115 546.215 251.115C545.747 251.115 545.436 251.426 545.436 251.893V252.049C545.436 252.517 545.903 252.828 546.215 252.828ZM546.215 246.441C546.682 246.441 546.994 246.13 546.994 245.662V245.507C546.994 245.039 546.682 244.728 546.215 244.728C545.747 244.728 545.436 245.039 545.436 245.507V245.662C545.436 246.13 545.903 246.441 546.215 246.441ZM546.215 240.054C546.682 240.054 546.994 239.743 546.994 239.275V239.12C546.994 238.652 546.682 238.341 546.215 238.341C545.747 238.341 545.436 238.652 545.436 239.12V239.275C545.436 239.743 545.903 240.054 546.215 240.054ZM546.215 233.667C546.682 233.667 546.994 233.356 546.994 232.888V232.733C546.994 232.265 546.682 231.954 546.215 231.954C545.747 231.954 545.436 232.265 545.436 232.733C545.436 233.2 545.903 233.667 546.215 233.667ZM546.215 227.28C546.682 227.28 546.994 226.969 546.994 226.502V226.346C546.994 225.878 546.682 225.567 546.215 225.567C545.747 225.567 545.436 225.878 545.436 226.346V226.502C545.436 226.969 545.903 227.28 546.215 227.28ZM546.215 220.894C546.682 220.894 546.994 220.582 546.994 220.115V219.959C546.994 219.492 546.682 219.18 546.215 219.18C545.747 219.18 545.436 219.492 545.436 219.959V220.115C545.436 220.582 545.903 220.894 546.215 220.894ZM546.215 214.507C546.682 214.507 546.994 214.195 546.994 213.728V213.572C546.994 213.105 546.682 212.793 546.215 212.793C545.747 212.793 545.436 213.105 545.436 213.572V213.728C545.436 214.195 545.903 214.507 546.215 214.507ZM546.215 208.12C546.682 208.12 546.994 207.808 546.994 207.341V207.185C546.994 206.718 546.682 206.406 546.215 206.406C545.747 206.406 545.436 206.718 545.436 207.185V207.341C545.436 207.808 545.903 208.12 546.215 208.12ZM546.215 201.733C546.682 201.733 546.994 201.421 546.994 200.954V200.798C546.994 200.331 546.682 200.019 546.215 200.019C545.747 200.019 545.436 200.331 545.436 200.798C545.436 201.265 545.903 201.733 546.215 201.733ZM546.215 195.346C546.682 195.346 546.994 195.034 546.994 194.567V194.411C546.994 193.944 546.682 193.632 546.215 193.632C545.747 193.632 545.436 193.944 545.436 194.411V194.567C545.436 195.034 545.903 195.346 546.215 195.346ZM546.215 188.959C546.682 188.959 546.994 188.647 546.994 188.18V188.024C546.994 187.557 546.682 187.245 546.215 187.245C545.747 187.245 545.436 187.557 545.436 188.024V188.18C545.436 188.647 545.903 188.959 546.215 188.959ZM546.215 182.572C546.682 182.572 546.994 182.261 546.994 181.793V181.637C546.994 181.17 546.682 180.859 546.215 180.859C545.747 180.859 545.436 181.17 545.436 181.637V181.793C545.436 182.261 545.903 182.572 546.215 182.572ZM546.215 176.185C546.682 176.185 546.994 175.874 546.994 175.406V175.251C546.994 174.783 546.682 174.472 546.215 174.472C545.747 174.472 545.436 174.783 545.436 175.251V175.406C545.436 175.874 545.903 176.185 546.215 176.185ZM543.255 171.668C543.567 171.668 543.722 171.512 543.878 171.2C544.034 170.889 544.034 170.421 543.567 170.11H543.411C543.099 169.954 542.632 169.954 542.32 170.421C542.165 170.733 542.165 171.2 542.632 171.512H542.788C542.943 171.512 543.099 171.668 543.255 171.668ZM537.647 168.396C537.959 168.396 538.27 168.24 538.27 168.085C538.426 167.773 538.426 167.306 538.114 166.994H537.959C537.647 166.838 537.18 166.838 536.868 167.306C536.712 167.617 536.712 168.085 537.18 168.396C537.335 168.396 537.491 168.396 537.647 168.396ZM532.039 165.281C532.35 165.281 532.662 165.125 532.662 164.969C532.818 164.658 532.818 164.19 532.506 163.879H532.35C532.039 163.723 531.572 163.723 531.26 164.19C531.104 164.502 531.104 164.969 531.572 165.281C531.727 165.125 531.883 165.281 532.039 165.281ZM526.587 162.165C526.898 162.165 527.054 162.009 527.21 161.698C527.366 161.386 527.366 160.919 526.898 160.607H526.742C526.431 160.452 525.964 160.452 525.652 160.919C525.496 161.23 525.496 161.698 525.964 162.009H526.119C526.431 162.009 526.431 162.165 526.587 162.165ZM520.979 158.894C521.29 158.894 521.602 158.738 521.602 158.582C521.758 158.271 521.758 157.803 521.446 157.492H521.29C520.979 157.336 520.511 157.336 520.2 157.803C520.044 158.115 520.044 158.582 520.511 158.894C520.667 158.894 520.823 158.894 520.979 158.894ZM515.526 155.778C515.838 155.778 516.15 155.622 516.15 155.467C516.305 155.155 516.305 154.688 515.994 154.376H515.838C515.526 154.22 515.059 154.22 514.748 154.688C514.592 154.999 514.592 155.467 515.059 155.778C515.215 155.622 515.371 155.778 515.526 155.778ZM509.918 152.663C510.23 152.663 510.386 152.507 510.542 152.195C510.697 151.884 510.697 151.416 510.23 151.105H510.074C509.763 150.949 509.295 150.949 508.984 151.416C508.828 151.728 508.828 152.195 509.295 152.507H509.451C509.763 152.663 509.918 152.663 509.918 152.663ZM504.31 149.391C504.622 149.391 504.934 149.236 504.934 149.08C505.089 148.768 505.089 148.301 504.778 147.989H504.622C504.31 147.834 503.843 147.834 503.532 148.301C503.376 148.612 503.376 149.08 503.843 149.391C503.999 149.391 504.155 149.391 504.31 149.391ZM498.858 146.276C499.17 146.276 499.481 146.12 499.481 145.964C499.637 145.653 499.637 145.185 499.326 144.874H499.17C498.858 144.718 498.391 144.718 498.079 145.185C497.923 145.497 497.924 145.964 498.391 146.276C498.547 146.12 498.702 146.276 498.858 146.276ZM493.406 143.16C493.717 143.16 493.873 143.004 494.029 142.693C494.185 142.381 494.185 141.914 493.718 141.602H493.562C493.25 141.447 492.783 141.447 492.471 141.914C492.315 142.226 492.315 142.693 492.783 143.004H492.939C493.094 143.16 493.25 143.16 493.406 143.16ZM487.642 139.889C487.954 139.889 488.265 139.733 488.265 139.577C488.421 139.266 488.421 138.798 488.109 138.487H487.954C487.642 138.331 487.175 138.331 486.863 138.798C486.707 139.11 486.707 139.577 487.175 139.889C487.486 139.889 487.642 139.889 487.642 139.889ZM482.19 136.773C482.501 136.773 482.813 136.618 482.813 136.462C482.969 136.15 482.969 135.683 482.657 135.371H482.501C482.19 135.215 481.723 135.216 481.411 135.683C481.255 135.994 481.255 136.462 481.723 136.773C481.878 136.618 482.034 136.773 482.19 136.773ZM476.738 133.658C477.049 133.658 477.205 133.502 477.361 133.19C477.517 132.879 477.517 132.411 477.049 132.1H476.893C476.582 131.944 476.115 131.944 475.803 132.411C475.647 132.723 475.647 133.19 476.115 133.502H476.27C476.426 133.658 476.582 133.658 476.738 133.658Z" fill="#BDCEFA"/>
<path d="M435.144 179.145C435.456 179.145 435.767 178.989 435.767 178.833C435.923 178.522 435.923 178.054 435.612 177.743H435.456C435.144 177.587 434.677 177.587 434.365 178.055C434.21 178.366 434.21 178.833 434.677 179.145C434.833 179.145 434.988 179.145 435.144 179.145ZM437.792 177.276C438.26 177.276 438.571 176.964 438.571 176.497V176.341C438.571 175.874 438.26 175.562 437.792 175.562C437.325 175.562 437.014 175.874 437.014 176.341V176.497C437.014 176.964 437.325 177.276 437.792 177.276ZM429.692 175.874C430.003 175.874 430.315 175.718 430.315 175.562C430.471 175.25 430.471 174.783 430.159 174.472H430.003C429.692 174.316 429.225 174.316 428.913 174.783C428.757 175.095 428.757 175.562 429.225 175.874C429.38 175.874 429.536 175.874 429.692 175.874ZM424.084 172.758C424.395 172.758 424.707 172.602 424.707 172.446C424.863 172.135 424.863 171.668 424.551 171.356H424.395C424.084 171.2 423.617 171.2 423.305 171.668C423.149 171.979 423.149 172.446 423.617 172.758C423.772 172.758 423.928 172.758 424.084 172.758ZM437.792 170.889C438.26 170.889 438.571 170.577 438.571 170.11V169.954C438.571 169.487 438.26 169.175 437.792 169.175C437.325 169.175 437.014 169.487 437.014 169.954V170.11C437.014 170.577 437.325 170.889 437.792 170.889ZM418.632 169.487C418.943 169.487 419.255 169.331 419.255 169.175C419.411 168.864 419.411 168.396 419.099 168.085H418.943C418.632 167.929 418.164 167.929 417.853 168.396C417.697 168.708 417.697 169.175 418.164 169.487C418.32 169.487 418.476 169.487 418.632 169.487ZM413.179 166.371C413.491 166.371 413.647 166.215 413.803 166.06C413.958 165.748 413.958 165.281 413.491 164.969L413.335 164.813C413.024 164.658 412.556 164.658 412.245 165.125C412.089 165.436 412.089 165.904 412.556 166.215L412.712 166.371C412.868 166.371 413.024 166.371 413.179 166.371ZM437.792 164.502C438.26 164.502 438.571 164.19 438.571 163.723C438.571 163.256 438.26 162.944 437.792 162.944C437.325 162.944 437.014 163.256 437.014 163.723V163.879C437.014 164.19 437.325 164.502 437.792 164.502ZM407.571 163.1C407.883 163.1 408.195 162.944 408.195 162.788C408.35 162.477 408.35 162.009 408.039 161.698L407.883 161.542C407.571 161.386 407.104 161.386 406.793 161.854C406.637 162.165 406.637 162.632 407.104 162.944C407.26 163.1 407.416 163.1 407.571 163.1ZM401.963 159.984C402.275 159.984 402.587 159.828 402.587 159.673C402.742 159.361 402.742 158.894 402.431 158.582L402.275 158.426C401.963 158.271 401.496 158.271 401.185 158.738C401.029 159.05 401.029 159.517 401.496 159.828C401.652 159.828 401.808 159.984 401.963 159.984ZM437.792 158.115C438.26 158.115 438.571 157.803 438.571 157.336V157.18C438.571 156.713 438.26 156.401 437.792 156.401C437.325 156.401 437.014 156.713 437.014 157.18V157.336C437.014 157.803 437.325 158.115 437.792 158.115ZM396.511 156.869C396.823 156.869 396.979 156.713 397.134 156.557C397.29 156.246 397.29 155.778 396.823 155.467L396.667 155.311C396.355 155.155 395.888 155.155 395.577 155.622C395.421 155.934 395.421 156.401 395.888 156.713L396.044 156.869C396.2 156.713 396.355 156.869 396.511 156.869ZM390.903 153.597C391.215 153.597 391.526 153.442 391.526 153.286C391.682 152.974 391.682 152.507 391.371 152.195L391.215 152.04C390.903 151.884 390.436 151.884 390.124 152.351C389.969 152.663 389.969 153.13 390.436 153.442C390.592 153.442 390.747 153.597 390.903 153.597ZM437.792 151.728C438.26 151.728 438.571 151.416 438.571 150.949V150.793C438.571 150.326 438.26 150.014 437.792 150.014C437.325 150.014 437.014 150.326 437.014 150.793V150.949C437.014 151.416 437.325 151.728 437.792 151.728ZM385.451 150.326C385.763 150.326 386.074 150.17 386.074 150.014C386.23 149.703 386.23 149.236 385.918 148.924H385.763C385.451 148.768 384.984 148.768 384.672 149.236C384.516 149.547 384.516 150.014 384.984 150.326C385.139 150.326 385.295 150.326 385.451 150.326ZM379.999 147.21C380.31 147.21 380.466 147.055 380.622 146.743C380.778 146.432 380.778 145.964 380.31 145.653H380.154C379.843 145.497 379.376 145.497 379.064 145.964C378.908 146.276 378.908 146.743 379.376 147.055H379.531C379.687 147.21 379.843 147.21 379.999 147.21ZM374.391 143.939C374.702 143.939 375.014 143.783 375.014 143.628C375.17 143.316 375.17 142.849 374.858 142.537H374.702C374.391 142.381 373.923 142.381 373.612 142.849C373.456 143.16 373.456 143.628 373.923 143.939C374.079 143.939 374.235 143.939 374.391 143.939Z" fill="#BDCEFA"/>
<path d="M46.9479 143.16L103.495 175.874C107.546 178.21 114.867 177.899 119.696 175.251L173.907 143.939C178.736 141.135 179.204 136.929 174.998 134.592L118.45 101.879C114.4 99.5423 107.078 99.8538 102.249 102.502L48.0383 133.813C43.2092 136.618 42.7419 140.824 46.9479 143.16Z" fill="#E8F2FE"/>
<path d="M44.1448 343.803V139.889C44.4564 141.135 45.2353 142.226 46.7931 143.16L103.341 175.874C105.366 176.964 108.014 177.587 110.818 177.431V382.747C108.014 382.747 105.366 382.28 103.341 381.189L46.7931 348.476C44.768 347.385 43.8333 345.672 44.1448 343.803Z" fill="url(#paint4_linear_906_11256)"/>
<path d="M119.542 175.251L173.753 143.939C176.089 142.693 177.336 140.979 177.647 139.422V343.335C178.114 345.36 176.712 347.697 173.753 349.411L119.542 380.722C117.049 382.124 113.934 382.903 110.818 382.903V177.431C113.934 177.431 117.049 176.653 119.542 175.251Z" fill="#DDDDDD"/>
<path d="M119.542 175.251L173.753 143.939C176.089 142.693 177.336 140.979 177.647 139.422V343.335C178.114 345.36 176.712 347.697 173.753 349.411L119.542 380.722C117.049 382.124 113.934 382.903 110.818 382.903V177.431C113.934 177.431 117.049 176.653 119.542 175.251Z" fill="url(#paint5_linear_906_11256)"/>
<path d="M46.1685 495.375L149.761 553.324C154.279 555.973 162.379 555.661 167.675 552.545L202.102 531.983C207.399 528.867 208.022 524.194 203.349 521.546L100.224 462.35C95.706 459.702 87.6055 460.013 82.309 463.129L47.4147 484.782C42.274 488.053 41.6509 492.727 46.1685 495.375Z" fill="#E8F2FE"/>
<path d="M43.209 501.918V491.792C43.5205 493.194 44.4552 494.44 46.1688 495.531L149.761 553.48C151.942 554.726 155.058 555.349 158.173 555.194V567.033C155.058 567.033 152.098 566.566 149.761 565.319L46.1688 507.37C43.8321 505.812 42.8974 503.787 43.209 501.918Z" fill="url(#paint6_linear_906_11256)"/>
<path d="M167.676 552.701L202.103 532.138C204.595 530.736 205.997 528.867 206.464 526.998V537.123C206.932 539.46 205.53 541.952 202.103 543.822L167.676 564.385C164.872 565.942 161.445 566.877 158.017 566.877V555.038C161.445 555.038 165.027 554.259 167.676 552.701Z" fill="url(#paint7_linear_906_11256)"/>
<path d="M3.17351 559.244L106.766 617.193C111.284 619.842 119.384 619.53 124.68 616.415L159.107 595.852C164.404 592.736 165.027 588.063 160.354 585.415L57.2285 526.219C52.7109 523.571 44.6105 523.882 39.314 526.998L4.41971 548.651C-0.87674 551.922 -1.49983 556.596 3.17351 559.244Z" fill="#E8F2FE"/>
<path d="M0.0581131 565.631V555.505C0.369667 556.907 1.30433 558.153 3.01789 559.244L106.61 617.193C108.791 618.44 111.907 619.063 115.022 618.907V630.746C111.907 630.746 108.947 630.279 106.61 629.033L3.01789 571.083C0.681213 569.525 -0.253448 567.656 0.0581131 565.631Z" fill="url(#paint8_linear_906_11256)"/>
<path d="M124.681 616.415L159.108 595.852C161.6 594.45 163.002 592.58 163.47 590.711V600.837C163.937 603.173 162.535 605.666 159.108 607.535L124.681 628.098C121.877 629.656 118.45 630.59 115.023 630.59V618.751C118.45 618.907 121.877 617.972 124.681 616.415Z" fill="url(#paint9_linear_906_11256)"/>
<path d="M21.3997 395.054L328.594 572.018C342.459 579.963 366.76 579.028 382.805 569.837L570.207 462.039C586.252 452.848 587.965 438.672 574.101 430.728L261.61 256.412C247.746 248.467 223.444 249.402 207.399 258.593L25.2941 363.743C9.40472 372.934 7.5354 387.11 21.3997 395.054Z" fill="#E8F2FE"/>
<path d="M12.3651 392.405V383.993C13.144 388.199 16.2596 392.094 21.4003 395.054L328.595 572.018C335.293 575.912 344.329 577.626 353.831 577.314V590.711C344.484 590.867 335.293 589.309 328.595 585.415L21.4003 408.451C14.2345 404.245 11.2747 398.325 12.3651 392.405Z" fill="url(#paint10_linear_906_11256)"/>
<path d="M382.806 569.681L570.207 462.038C577.841 457.676 582.202 452.068 583.137 446.772V455.184C584.539 462.038 580.177 469.671 570.207 475.435L382.806 583.234C374.55 588.063 363.957 590.555 353.831 590.867V577.47C363.957 577.003 374.55 574.51 382.806 569.681Z" fill="#C9C9C9"/>
<path d="M382.806 569.681L570.207 462.038C577.841 457.676 582.202 452.068 583.137 446.772V455.184C584.539 462.038 580.177 469.671 570.207 475.435L382.806 583.234C374.55 588.063 363.957 590.555 353.831 590.867V577.47C363.957 577.003 374.55 574.51 382.806 569.681Z" fill="url(#paint11_linear_906_11256)"/>
<path d="M309.901 492.415L374.081 529.49L537.181 435.244L473.156 398.169L309.901 492.415Z" fill="white"/>
<path d="M309.901 492.415V519.053L374.082 556.128V529.49L309.901 492.415Z" fill="url(#paint12_linear_906_11256)"/>
<path d="M537.182 435.244V461.882L374.082 556.128V529.49L537.182 435.244Z" fill="url(#paint13_linear_906_11256)"/>
<path d="M443.092 426.677L471.288 442.878C473.313 444.124 476.896 443.968 479.389 442.566L506.338 426.988C508.675 425.586 508.986 423.561 506.961 422.315L478.765 406.114C476.74 404.868 473.157 405.023 470.665 406.425L443.715 422.003C441.379 423.405 441.067 425.586 443.092 426.677Z" fill="#99CFFF"/>
<path d="M441.846 437.425V424.963C442.002 425.586 442.469 426.209 443.248 426.677L471.444 442.878C472.379 443.501 473.781 443.656 475.183 443.656V456.742C473.781 456.742 472.379 456.586 471.444 455.963L443.248 439.762C442.002 439.295 441.69 438.36 441.846 437.425Z" fill="#70C3FF"/>
<path d="M479.233 442.722L506.183 427.144C507.273 426.521 507.897 425.742 508.052 424.807V437.27C508.208 438.36 507.585 439.45 506.183 440.229L479.233 455.807C477.987 456.586 476.429 456.898 474.872 456.898V443.812C476.585 443.812 478.143 443.345 479.233 442.722Z" fill="#249AEF"/>
<path d="M393.554 455.496L421.75 471.697C423.775 472.943 427.358 472.787 429.851 471.385L456.8 455.807C459.137 454.405 459.448 452.38 457.423 451.134L429.227 434.933C427.202 433.687 423.619 433.842 421.127 435.244L394.177 450.822C391.685 452.224 391.373 454.249 393.554 455.496Z" fill="#F9825D"/>
<path d="M392.152 466.244V453.782C392.307 454.405 392.775 455.028 393.554 455.496L421.75 471.697C422.684 472.32 424.086 472.475 425.488 472.475V485.561C424.086 485.561 422.684 485.405 421.75 484.782L393.554 468.581C392.463 467.958 391.996 467.179 392.152 466.244Z" fill="#FF8661"/>
<path d="M429.694 471.385L456.643 455.807C457.734 455.184 458.357 454.405 458.513 453.47V465.933C458.669 467.023 458.045 468.114 456.643 468.892L429.694 484.47C428.448 485.249 426.89 485.561 425.332 485.561V472.475C426.89 472.475 428.448 472.164 429.694 471.385Z" fill="#D56144"/>
<path d="M342.77 484.626L370.966 500.827C372.991 502.073 376.574 501.918 379.066 500.516L406.016 484.938C408.353 483.536 408.664 481.511 406.639 480.264L378.443 464.063C376.418 462.817 372.835 462.973 370.343 464.375L343.393 479.953C341.056 481.355 340.745 483.536 342.77 484.626Z" fill="#98EF7A"/>
<path d="M341.524 495.375V482.913C341.68 483.536 342.147 484.159 342.926 484.626L371.122 500.827C372.056 501.45 373.458 501.606 374.86 501.606V514.691C373.458 514.691 372.056 514.536 371.122 513.912L342.926 497.711C341.68 497.088 341.368 496.309 341.524 495.375Z" fill="#91E873"/>
<path d="M379.066 500.516L406.016 484.938C407.106 484.315 407.73 483.536 407.885 482.601V495.063C408.041 496.154 407.418 497.244 406.016 498.023L379.066 513.601C377.82 514.38 376.262 514.691 374.705 514.691V501.606C376.262 501.606 377.82 501.294 379.066 500.516Z" fill="#68C945"/>
<path d="M76.8567 373.868C52.8533 373.868 33.3946 362.639 33.3946 348.787C33.3946 334.936 52.8533 323.707 76.8567 323.707C100.86 323.707 120.319 334.936 120.319 348.787C120.319 362.639 100.86 373.868 76.8567 373.868Z" fill="white"/>
<path d="M46.1694 366.546C63.1492 376.36 90.5662 376.36 107.546 366.546C115.958 361.717 120.164 355.33 120.32 348.943V375.893C120.32 382.28 116.114 388.823 107.546 393.807C90.5662 403.622 63.1492 403.622 46.1694 393.807C37.6016 388.823 33.3956 382.436 33.3956 375.893V348.943C33.5514 355.33 37.7574 361.717 46.1694 366.546Z" fill="url(#paint14_linear_906_11256)"/>
<path d="M76.8577 329.782L50.3754 345.049C64.8628 353.461 88.8527 353.461 103.34 345.049C117.827 336.637 117.827 322.772 103.34 314.516C95.2396 309.843 83.8678 307.506 72.3402 308.285L76.8577 329.782Z" fill="#76B5CE"/>
<path d="M103.495 345.049C110.661 340.843 114.4 335.391 114.4 329.783V345.205C114.4 350.813 110.817 356.421 103.495 360.627C89.008 369.039 65.0182 369.039 50.5308 360.627V345.049C65.0182 353.461 88.8523 353.461 103.495 345.049Z" fill="#249AEF"/>
<path d="M76.8577 329.782L50.3754 345.049C64.8628 353.461 88.8527 353.461 103.34 345.049C117.827 336.637 117.827 322.772 103.34 314.516C95.2396 309.843 83.8678 307.506 72.3402 308.285L76.8577 329.782Z" fill="#99CFFF"/>
<path d="M76.8579 313.893L72.4961 292.396C64.0841 293.019 56.451 295.2 50.3757 298.627C35.8883 307.039 35.8883 320.903 50.3757 329.159L76.8579 313.893Z" fill="#F97F58"/>
<path d="M76.8579 313.893V329.783L50.3756 345.049V329.159L76.8579 313.893Z" fill="#D56144"/>
<path d="M39.4705 345.049V313.893C39.4705 319.345 43.2092 324.953 50.375 329.004V344.893V360.471C43.0534 356.421 39.4705 350.657 39.4705 345.049Z" fill="#FF8661"/>
<path d="M166.117 305.793L227.805 270.119C235.127 265.913 234.192 258.592 225.78 253.763C217.368 248.934 204.594 248.311 197.273 252.517L135.585 288.19C128.263 292.396 129.198 299.717 137.61 304.546C146.178 309.376 158.951 309.999 166.117 305.793Z" fill="white"/>
<path d="M137.766 304.546C146.178 309.376 158.952 309.999 166.273 305.793L227.961 270.119C231.077 268.25 232.791 265.913 232.946 263.265V281.491V281.647C232.946 284.295 231.233 286.788 227.961 288.657L166.273 324.33C158.952 328.536 146.178 328.069 137.766 323.084C132.937 320.28 130.6 316.853 130.756 313.426V295.044C130.756 298.471 133.092 301.898 137.766 304.546Z" fill="url(#paint15_linear_906_11256)"/>
<path d="M201.636 264.823C204.751 266.692 209.892 266.692 213.163 264.823C216.279 262.954 216.279 259.994 213.163 258.28C210.048 256.411 204.907 256.411 201.636 258.28C198.364 259.994 198.364 262.954 201.636 264.823Z" fill="#BDCEFA"/>
<path d="M183.72 275.104C186.836 276.974 191.976 276.974 195.248 275.104C198.363 273.235 198.363 270.275 195.248 268.562C192.132 266.692 186.992 266.692 183.72 268.562C180.605 270.275 180.605 273.235 183.72 275.104Z" fill="#BDCEFA"/>
<path d="M165.807 285.386C168.922 287.255 174.063 287.255 177.334 285.386C180.45 283.516 180.45 280.557 177.334 278.843C174.219 276.974 169.078 276.974 165.807 278.843C162.691 280.712 162.691 283.672 165.807 285.386Z" fill="#BDCEFA"/>
<path d="M147.892 295.823C151.007 297.692 156.148 297.692 159.419 295.823C162.535 293.954 162.535 290.994 159.419 289.28C156.304 287.411 151.163 287.411 147.892 289.28C144.776 290.994 144.776 293.954 147.892 295.823Z" fill="#BDCEFA"/>
<path d="M191.976 273.702C189.795 274.014 187.77 272.612 187.458 270.431L183.564 248.31C183.252 246.13 184.654 244.104 186.835 243.793C189.016 243.481 191.041 244.883 191.353 247.064L195.247 269.185C195.559 271.21 194.157 273.235 191.976 273.702Z" fill="#F9AB83"/>
<path d="M209.735 275.104C209.112 277.129 206.775 278.376 204.75 277.753L191.041 273.702C188.86 273.547 187.147 271.677 187.303 269.496C187.458 267.315 189.328 265.602 191.509 265.758L207.087 270.119C209.112 270.743 210.358 272.923 209.735 275.104Z" fill="#F9AB83"/>
<path d="M168.609 340.375C168.609 340.843 168.921 341.31 169.7 341.777C169.856 341.933 169.7 338.973 170.323 339.441C170.479 339.597 179.981 347.074 185.434 345.672C186.057 345.516 186.212 345.049 186.212 344.582V343.335C186.212 341.933 184.343 339.908 181.227 336.948C177.8 333.677 175.775 331.652 170.79 334.456C169.388 335.235 168.765 335.858 168.765 336.481L168.609 340.375Z" fill="#010400"/>
<path d="M181.228 336.948C185.278 340.843 187.459 343.18 185.434 344.426C183.409 345.672 179.203 343.803 174.997 340.531C171.258 337.727 165.806 337.416 170.791 334.456C175.776 331.652 177.957 333.677 181.228 336.948Z" fill="#484968"/>
<path d="M177.177 335.079L176.866 298.627L164.871 302.521L166.896 308.441C166.896 308.441 165.961 316.386 168.454 324.486C168.454 324.486 170.167 328.069 169.856 336.169C169.856 336.169 174.217 338.662 177.177 335.079Z" fill="#F1AC85"/>
<path d="M180.293 330.873C180.293 331.34 180.605 331.808 181.383 332.275C181.539 332.431 181.383 329.471 182.007 329.938C182.162 330.094 191.665 337.571 197.117 336.169C197.74 336.014 197.896 335.546 197.896 335.079V333.833C197.896 332.431 196.027 330.406 192.911 327.446C189.484 324.175 187.459 322.149 182.474 324.953C181.072 325.732 180.449 326.355 180.449 326.979L180.293 330.873Z" fill="#010400"/>
<path d="M192.912 327.446C196.962 331.34 199.143 333.677 197.118 334.923C195.092 336.169 190.886 334.3 186.68 331.029C182.942 328.225 177.489 327.913 182.474 324.953C187.459 322.149 189.484 324.175 192.912 327.446Z" fill="#484968"/>
<path d="M188.861 325.577L188.549 289.124L176.554 293.019L178.58 298.938C178.58 298.938 177.645 306.883 180.137 314.984C180.137 314.984 181.851 318.567 181.539 326.667C181.384 326.511 185.901 329.004 188.861 325.577Z" fill="#E28C66"/>
<path d="M160.509 290.059V303.456C160.509 303.456 176.243 308.752 191.197 290.059V276.974L160.509 290.059Z" fill="#9CE3F0"/>
<path d="M168.143 295.2C168.299 295.356 168.455 295.356 168.61 295.356C171.259 295.511 180.761 293.486 190.264 282.738C191.042 281.803 191.51 280.712 191.51 279.622V249.245C191.51 246.909 190.731 245.351 189.329 244.572L182.163 240.366C180.917 239.587 179.047 239.743 177.022 240.833L167.208 246.441C163.314 248.778 160.043 254.23 160.043 258.903V289.592C160.043 290.371 160.354 290.838 160.666 290.994L168.143 295.2Z" fill="#54A5F8"/>
<path d="M170.79 248.466C170.79 249.245 171.258 250.024 172.193 250.491C174.218 251.582 177.333 251.582 179.358 250.491C180.293 249.868 180.916 249.089 180.76 248.466V241.768C180.76 240.989 180.293 240.21 179.358 239.743C177.333 238.652 174.218 238.652 172.193 239.743C171.258 240.366 170.635 241.145 170.79 241.768V248.466Z" fill="#DD936F"/>
<path d="M171.258 239.12C171.258 240.834 170.167 241.457 168.609 240.678C167.207 239.899 165.961 237.874 165.961 236.16C165.961 234.446 167.051 233.823 168.609 234.602C170.011 235.381 171.258 237.406 171.258 239.12Z" fill="#F9AB83"/>
<path d="M184.811 256.878C184.811 256.878 198.208 244.728 190.107 222.919L183.876 245.506L184.811 256.878Z" fill="#3F4893"/>
<path d="M172.61 244.664C165.16 242.898 160.551 235.427 162.317 227.977C164.083 220.527 171.554 215.919 179.004 217.684C186.454 219.45 191.063 226.921 189.297 234.371C187.531 241.822 180.06 246.43 172.61 244.664Z" fill="#F1AC85"/>
<path d="M179.981 256.878C179.981 256.878 169.7 245.507 176.865 224.321L189.795 228.682C189.795 228.682 194.157 217.778 179.669 214.507C179.669 214.507 170.011 212.326 166.584 220.426C166.584 220.426 158.795 221.049 161.755 237.094C161.599 237.406 162.066 252.517 179.981 256.878Z" fill="#3F4893"/>
<path d="M170.792 282.582C168.767 283.205 166.431 281.959 165.963 279.778L159.888 257.034C159.265 255.009 160.511 252.672 162.692 252.205C164.717 251.582 167.054 252.828 167.521 255.009L173.596 277.753C174.064 279.778 172.973 281.959 170.792 282.582Z" fill="#F9AB83"/>
<path d="M192.912 283.361C192.445 285.541 190.42 286.788 188.239 286.476L169.857 282.737C167.676 282.737 165.807 281.024 165.807 278.843C165.807 276.662 167.52 274.793 169.701 274.793L189.952 278.687C192.133 279.155 193.379 281.18 192.912 283.361Z" fill="#F9AB83"/>
<path d="M442.779 376.361V239.899C442.779 236.472 440.909 233.2 437.95 231.487L273.915 136.929C267.528 133.191 259.428 137.864 259.428 145.341V281.803C259.428 285.23 261.297 288.502 264.257 290.215L428.136 384.773C434.678 388.355 442.779 383.838 442.779 376.361Z" fill="white"/>
<path d="M432.964 382.748C436.08 382.748 439.351 380.255 439.351 376.361V239.899C439.351 237.562 438.105 235.537 436.08 234.291L272.357 139.734C271.422 139.111 270.332 138.799 269.085 138.799C265.97 138.799 262.699 141.291 262.699 145.186V281.648C262.699 283.984 263.945 286.009 265.97 287.256L429.849 381.969C430.783 382.436 431.874 382.748 432.964 382.748Z" fill="url(#paint16_linear_906_11256)"/>
<path d="M442.779 376.36V239.898C442.779 236.471 440.91 233.2 437.95 231.486L273.915 136.929C271.267 135.371 268.152 135.216 265.659 136.306L269.554 134.281C272.514 132.1 276.564 131.633 280.147 133.658L444.025 228.371C446.985 230.084 448.854 233.356 448.854 236.783V373.245C448.854 376.516 447.297 379.32 444.804 381.034H444.648C444.025 381.501 443.246 381.812 442.623 382.124L438.262 384.461C440.91 382.591 442.779 379.787 442.779 376.36Z" fill="url(#paint17_linear_906_11256)"/>
<path d="M428.136 401.441L310.056 469.671C307.096 471.385 303.358 471.385 300.398 469.671L136.363 374.958C129.976 371.22 129.976 361.873 136.363 358.134L254.443 289.903C257.403 288.19 261.142 288.19 264.101 289.903L428.136 384.772C434.679 388.355 434.679 397.702 428.136 401.441Z" fill="white"/>
<path d="M136.364 374.958L300.398 469.671C303.358 471.385 307.096 471.385 310.056 469.671L428.136 401.44C431.408 399.571 432.965 396.3 432.965 393.028V401.908C432.965 405.179 431.408 408.451 428.136 410.32L310.056 478.551C307.096 480.264 303.358 480.264 300.398 478.551L136.519 383.838C133.404 382.124 131.846 379.008 131.69 375.893V375.737C131.69 375.581 131.69 375.27 131.69 375.114V367.013C131.69 370.129 133.248 373.245 136.364 374.958Z" fill="url(#paint18_linear_906_11256)"/>
<path d="M197.584 348.32L338.407 429.481C343.86 432.596 353.518 432.285 359.905 428.546L402.277 404.089C408.663 400.35 409.287 394.898 403.834 391.782L263.011 310.466C257.559 307.35 247.9 307.662 241.513 311.401L199.142 335.858C192.755 339.597 192.132 345.049 197.584 348.32Z" fill="#B8D0F6"/>
<path d="M403.679 393.807L262.855 312.491C257.403 309.376 247.745 309.687 241.358 313.426L198.986 337.883C196.027 339.597 194.313 341.777 193.846 343.958C193.223 341.31 195.092 338.195 198.986 336.014L241.358 311.556C247.745 307.818 257.247 307.506 262.855 310.622L403.679 391.938C406.483 393.652 407.729 395.833 407.262 398.325C406.95 396.456 405.704 394.898 403.679 393.807Z" fill="#99B6E0"/>
<path d="M290.117 347.697L297.594 343.335L305.071 347.697L297.594 352.059L290.117 347.697ZM304.76 356.109L312.237 351.747L319.714 356.109L312.237 360.471L304.76 356.109ZM275.318 339.285L282.795 334.923L290.272 339.285L282.795 343.647L275.318 339.285ZM232.79 343.803L217.212 334.767L224.69 330.406L240.267 339.441L232.79 343.803ZM229.83 327.446L237.308 323.084L244.785 327.446L237.308 331.808L229.83 327.446ZM260.674 330.717L268.152 326.355L275.629 330.717L268.152 335.079L260.674 330.717ZM319.403 364.677L326.88 360.315L334.358 364.677L326.88 369.039L319.403 364.677ZM242.76 340.843L371.433 415.149L363.955 419.511L235.283 345.205L242.76 340.843ZM334.046 373.089L341.523 368.727L349.001 373.089L341.523 377.451L334.046 373.089ZM248.679 329.783L384.051 407.983L376.573 412.345L241.202 334.144L248.679 329.783ZM212.072 337.727L358.815 422.471L351.337 426.832L204.594 342.089L212.072 337.727ZM363.488 390.069L370.965 385.707L378.443 390.069L370.965 394.43L363.488 390.069ZM348.845 381.657L356.322 377.295L363.8 381.657L356.322 386.018L348.845 381.657Z" fill="#99B6E0"/>
<path d="M290.117 346.451L297.594 342.089L305.071 346.451L297.594 350.813L290.117 346.451ZM304.76 354.863L312.237 350.501L319.714 354.863L312.237 359.225L304.76 354.863ZM275.318 337.883L282.795 333.521L290.272 337.883L282.795 342.245L275.318 337.883ZM232.79 342.401L217.212 333.365L224.69 329.004L240.267 338.039L232.79 342.401ZM229.83 326.2L237.308 321.838L244.785 326.2L237.308 330.561L229.83 326.2ZM260.674 329.471L268.152 325.109L275.629 329.471L268.152 333.833L260.674 329.471ZM319.403 363.275L326.88 358.913L334.358 363.275L326.88 367.637L319.403 363.275ZM242.76 339.597L371.433 413.903L363.955 418.265L235.283 343.958L242.76 339.597ZM334.046 371.843L341.523 367.481L349.001 371.843L341.523 376.204L334.046 371.843ZM248.679 328.381L384.051 406.581L376.573 410.943L241.202 332.742L248.679 328.381ZM212.072 336.481L358.815 421.224L351.337 425.586L204.594 340.843L212.072 336.481ZM363.488 388.822L370.965 384.461L378.443 388.822L370.965 393.184L363.488 388.822ZM348.845 380.255L356.322 375.893L363.8 380.255L356.322 384.616L348.845 380.255Z" fill="#E4F2FF"/>
<path d="M282.795 334.3L275.941 338.35L275.318 338.039L282.795 333.677L290.272 338.039L289.649 338.35L282.795 334.3ZM268.152 325.732L261.298 329.783L260.674 329.471L268.152 325.109L275.629 329.471L275.006 329.783L268.152 325.732ZM297.594 342.712L290.74 346.762L290.117 346.451L297.594 342.089L305.071 346.451L304.448 346.762L297.594 342.712ZM239.644 338.506L224.69 329.783L217.835 333.833L217.212 333.521L224.69 329.159L240.267 338.195L239.644 338.506ZM312.237 351.28L305.383 355.33L304.76 355.019L312.237 350.657L319.714 355.019L319.091 355.33L312.237 351.28ZM237.308 322.461L230.453 326.511L229.83 326.2L237.308 321.838L244.785 326.2L244.162 326.511L237.308 322.461ZM212.072 336.481L358.815 421.224L358.192 421.536L211.916 337.104L205.062 341.154L204.438 340.843L212.072 336.481ZM241.825 333.054L241.202 332.742L248.679 328.381L384.051 406.581L383.428 406.893L248.679 329.004L241.825 333.054ZM370.965 385.084L364.111 389.134L363.488 388.822L370.965 384.461L378.443 388.822L377.82 389.134L370.965 385.084ZM235.906 344.27L235.283 343.958L242.76 339.597L371.433 413.903L370.81 414.214L242.76 340.22L235.906 344.27ZM356.166 376.672L349.312 380.722L348.689 380.41L356.166 376.049L363.644 380.41L363.021 380.722L356.166 376.672ZM326.88 359.692L320.026 363.742L319.403 363.431L326.88 359.069L334.358 363.431L333.734 363.742L326.88 359.692ZM341.523 368.104L334.669 372.154L334.046 371.843L341.523 367.481L349.001 371.843L348.378 372.154L341.523 368.104Z" fill="white"/>
<path d="M209.111 395.988L253.041 421.38C255.689 422.938 260.518 422.782 263.634 420.913L273.292 415.305C276.408 413.435 276.719 410.787 274.071 409.074L230.142 383.682C227.493 382.124 222.664 382.28 219.549 384.149L209.89 389.757C206.775 391.627 206.307 394.431 209.111 395.988Z" fill="#B8D0F6"/>
<path d="M274.072 410.476L230.142 385.084C227.494 383.526 222.665 383.682 219.549 385.551L209.891 391.159C208.489 391.938 207.71 393.029 207.399 393.963C207.087 392.561 207.866 391.003 209.891 389.757L219.549 384.149C222.665 382.28 227.494 382.124 230.142 383.682L274.072 409.229C275.63 410.164 276.097 411.255 275.785 412.501C275.474 411.722 275.006 410.943 274.072 410.476Z" fill="#99B6E0"/>
<path d="M285.911 186.467V181.482C285.911 177.12 289.027 175.406 292.765 177.587L409.599 245.039C413.338 247.22 416.453 252.517 416.453 256.878V261.863L285.911 186.467Z" fill="white"/>
<path d="M404.302 248.467C404.302 250.18 405.548 252.361 407.106 253.14C408.664 254.075 409.91 253.296 409.91 251.582C409.91 249.869 408.664 247.688 407.106 246.909C405.392 245.974 404.302 246.597 404.302 248.467Z" fill="white"/>
<path d="M394.643 242.858C394.643 244.572 395.89 246.753 397.448 247.532C399.006 248.467 400.252 247.688 400.252 245.974C400.252 244.261 399.006 242.08 397.448 241.301C395.89 240.366 394.643 241.145 394.643 242.858Z" fill="white"/>
<path d="M384.985 237.25C384.985 238.964 386.231 241.145 387.789 241.924C389.347 242.859 390.593 242.08 390.593 240.366C390.593 238.653 389.347 236.472 387.789 235.693C386.231 234.914 384.985 235.537 384.985 237.25Z" fill="white"/>
<path d="M395.578 274.325L416.297 286.165V267.471L395.578 255.476V274.325Z" fill="white" fill-opacity="0.4"/>
<path d="M369.875 259.371L390.438 271.366V252.517L369.875 240.677V259.371Z" fill="white" fill-opacity="0.9"/>
<path opacity="0.7" d="M344.015 244.416L364.734 256.411V237.562L344.015 225.723V244.416Z" fill="white"/>
<path d="M336.85 240.366L285.911 210.924V207.029L336.85 236.471V240.366Z" fill="url(#paint19_linear_906_11256)"/>
<path d="M336.85 233.044L285.911 203.446V199.552L336.85 228.994V233.044Z" fill="url(#paint20_linear_906_11256)"/>
<path d="M336.85 225.567L285.911 196.125V192.075L336.85 221.672V225.567Z" fill="url(#paint21_linear_906_11256)"/>
<path d="M290.428 253.763L411.779 323.863C414.272 325.265 416.297 323.707 416.297 320.436V297.848C416.297 294.577 414.272 290.682 411.779 289.28L290.428 219.18C287.936 217.778 285.911 219.336 285.911 222.607V245.195C285.911 248.622 287.936 252.361 290.428 253.763Z" fill="white"/>
<path d="M363.021 290.682L378.754 299.873V280.245L363.021 271.054V290.682Z" fill="#99CFFF"/>
<path d="M343.081 279.31L358.971 288.346V271.989L343.081 262.798V279.31Z" fill="#98EF7A"/>
<path d="M323.297 267.783L339.186 276.974V252.984L323.297 243.793V267.783Z" fill="#F97F58"/>
<path d="M294.79 248.934L290.428 246.597V242.547L294.79 245.039V248.934Z" fill="#F97F58"/>
<path d="M294.79 241.613L290.428 239.12V235.225L294.79 237.562V241.613Z" fill="#F97F58"/>
<path d="M294.79 234.135L290.428 231.643V227.748L294.79 230.24V234.135Z" fill="#F97F58"/>
<path d="M318.78 262.954L296.816 250.18V246.285L318.78 258.903V262.954Z" fill="url(#paint22_linear_906_11256)"/>
<path d="M318.78 255.476L296.816 242.703V238.808L318.78 251.582V255.476Z" fill="url(#paint23_linear_906_11256)"/>
<path d="M318.78 247.999L296.816 235.381V231.331L318.78 244.105V247.999Z" fill="url(#paint24_linear_906_11256)"/>
<path d="M407.261 295.2L411.468 297.692V301.587L407.261 299.095V295.2Z" fill="#99CFFF"/>
<path d="M407.261 302.677L411.468 305.014V309.065L407.261 306.572V302.677Z" fill="#99CFFF"/>
<path d="M407.261 309.999L411.468 312.491V316.386L407.261 313.894V309.999Z" fill="#99CFFF"/>
<path d="M383.116 281.336L405.237 293.954V298.004L383.116 285.23V281.336Z" fill="url(#paint25_linear_906_11256)"/>
<path d="M383.116 288.657L405.237 301.431V305.325L383.116 292.552V288.657Z" fill="url(#paint26_linear_906_11256)"/>
<path d="M383.116 296.134L405.237 308.752V312.803L383.116 300.029V296.134Z" fill="url(#paint27_linear_906_11256)"/>
<path d="M294.634 275.416L405.704 339.597C408.041 340.999 409.91 339.441 409.91 336.481C409.91 333.365 408.041 329.783 405.704 328.536L294.634 264.356C292.298 262.954 290.428 264.511 290.428 267.471C290.428 270.431 292.298 274.17 294.634 275.416Z" fill="white"/>
<path d="M410.222 357.978L515.528 418.732C518.8 420.601 521.448 418.576 521.448 414.214V314.672C521.448 310.31 518.8 305.17 515.528 303.3L410.222 242.547C406.951 240.677 404.302 242.703 404.302 247.064V346.607C404.302 351.124 406.951 356.109 410.222 357.978Z" fill="url(#paint28_linear_906_11256)"/>
<path d="M413.493 347.853L512.412 404.868V397.546L413.493 340.375V347.853Z" fill="url(#paint29_linear_906_11256)"/>
<path d="M432.342 302.833C432.342 322.305 446.051 345.983 462.875 355.797C479.699 365.612 493.407 357.667 493.407 338.195C493.407 318.722 479.699 295.044 462.875 285.23C446.051 275.416 432.342 283.361 432.342 302.833Z" fill="url(#paint30_linear_906_11256)"/>
<path d="M194.003 205.316L299.309 266.069C302.58 267.939 305.229 265.913 305.229 261.552V183.818C305.229 179.457 302.58 174.316 299.309 172.447L194.003 111.693C190.732 109.824 188.083 111.849 188.083 116.211V193.944C188.083 198.461 190.732 203.446 194.003 205.316Z" fill="url(#paint31_linear_906_11256)"/>
<path d="M197.272 192.23L296.036 249.401V241.924L197.272 184.909V192.23Z" fill="url(#paint32_linear_906_11256)"/>
<path d="M197.272 177.12L296.036 234.135V226.657L197.272 169.643V177.12Z" fill="url(#paint33_linear_906_11256)"/>
<path d="M267.528 199.863L294.01 215.286V184.597L267.528 169.331V199.863Z" fill="url(#paint34_linear_906_11256)"/>
<path d="M233.413 180.235L259.896 195.502V164.813L233.413 149.547V180.235Z" fill="url(#paint35_linear_906_11256)"/>
<path d="M199.141 160.452L225.779 175.874V145.185L199.141 129.763V160.452Z" fill="url(#paint36_linear_906_11256)"/>
<path d="M490.367 545.456L546.915 578.169C550.965 580.506 558.287 580.194 563.116 577.546L617.327 546.235C622.156 543.431 622.623 539.225 618.417 536.888L561.87 504.174C557.819 501.838 550.498 502.149 545.669 504.798L491.458 536.109C486.784 538.913 486.161 543.119 490.367 545.456Z" fill="#E8F2FE"/>
<path d="M487.719 645.154V542.184C488.03 543.431 488.809 544.521 490.367 545.456L546.914 578.169C548.939 579.26 551.588 579.883 554.392 579.727V684.098C551.588 684.098 548.939 683.631 546.914 682.541L490.367 649.827C488.186 648.581 487.251 646.867 487.719 645.154Z" fill="url(#paint37_linear_906_11256)"/>
<path d="M562.96 577.546L617.171 546.235C619.507 544.988 620.754 543.275 621.065 541.717V644.686C621.532 646.712 620.13 649.048 617.171 650.762L562.96 682.073C560.467 683.475 557.352 684.084 554.236 684.084V579.883C557.352 579.727 560.623 578.948 562.96 577.546Z" fill="url(#paint38_linear_906_11256)"/>
<path d="M141.504 485.872C141.972 486.028 142.127 486.651 142.283 487.43C142.283 487.742 139.791 486.028 139.947 486.807C139.947 487.119 141.816 498.958 137.921 502.852C137.454 503.32 136.987 503.164 136.519 503.008L135.429 502.385C134.183 501.762 133.404 499.114 132.313 494.908C131.067 490.39 130.444 487.586 135.429 484.626C136.831 483.847 137.61 483.536 138.077 483.847L141.504 485.872Z" fill="#010400"/>
<path d="M132.313 495.063C133.715 500.516 134.65 503.631 136.831 502.385C138.856 501.139 139.323 496.621 138.7 491.325C138.077 486.651 140.414 481.822 135.429 484.782C130.444 487.742 131.067 490.546 132.313 495.063Z" fill="#484968"/>
<path d="M100.222 460.169L110.504 463.908L114.71 468.581C114.71 468.581 122.031 471.697 127.795 477.772C127.795 477.772 129.976 481.043 137.297 484.626C137.297 484.626 137.297 489.767 132.78 490.546L103.649 473.722C101.624 472.475 100.222 470.45 100.066 468.114C99.7549 466.4 99.7549 463.752 100.222 460.169Z" fill="#E28C66"/>
<path d="M121.721 511.577C121.721 512.044 121.409 512.511 120.63 512.979C120.475 513.134 120.63 510.175 120.007 510.642C119.851 510.798 110.349 518.119 105.052 516.873C104.429 516.717 104.274 516.25 104.274 515.783V514.536C104.274 513.134 106.143 511.109 109.258 508.15C112.53 504.878 114.711 502.853 119.696 505.813C121.098 506.592 121.721 507.215 121.721 507.838V511.577Z" fill="#2D0D60"/>
<path d="M109.102 508.149C105.052 512.043 102.871 514.38 104.896 515.626C106.921 516.872 111.127 515.003 115.333 511.732C119.072 508.928 124.524 508.616 119.539 505.656C114.71 502.852 112.529 504.877 109.102 508.149Z" fill="#484968"/>
<path d="M113.152 506.279L113.464 469.983L123.278 473.254L123.434 479.953C123.434 479.953 124.368 487.898 121.876 495.842C121.876 495.842 120.162 499.269 120.474 507.526C120.63 507.37 116.112 509.862 113.152 506.279Z" fill="#F1AC85"/>
<path d="M86.3581 455.34C88.3833 456.275 90.7199 455.34 91.4988 453.315L107.077 418.888C108.011 416.863 107.077 414.526 105.052 413.747C103.026 412.812 100.69 413.747 99.9109 415.772L84.333 450.199C83.3983 452.069 84.333 454.561 86.3581 455.34Z" fill="#E28C66"/>
<path d="M84.8006 451.445L109.258 437.425V417.642L84.8006 431.817V451.445Z" fill="url(#paint39_linear_906_11256)"/>
<path d="M90.8755 446.149V431.194L90.2523 431.506V446.461L90.8755 446.149Z" fill="#A29AFB"/>
<path d="M91.9658 441.008V430.571L91.4985 430.883V441.32L91.9658 441.008Z" fill="#A29AFB"/>
<path d="M93.2124 443.657V429.792L92.5893 430.104V443.968L93.2124 443.657Z" fill="#A29AFB"/>
<path d="M94.3022 444.124V429.17L93.8348 429.481V444.436L94.3022 444.124Z" fill="#A29AFB"/>
<path d="M95.5488 433.999V428.39L95.0815 428.702V434.31L95.5488 433.999Z" fill="#A29AFB"/>
<path d="M129.821 461.415V474.812C129.821 474.812 114.087 480.109 99.2882 461.415V448.486L129.821 461.415Z" fill="#FF9100"/>
<path d="M122.654 465.621C122.499 465.777 122.343 465.777 122.187 465.777C119.539 465.933 110.036 463.908 100.534 453.159C99.7551 452.224 99.2877 451.134 99.2877 450.043V419.667C99.2877 417.33 100.067 415.772 101.469 414.993L108.634 410.787C109.881 410.008 111.75 410.164 113.775 411.255L123.433 416.863C127.328 419.199 130.599 424.652 130.599 429.169V459.702C130.599 460.481 130.288 460.948 129.976 461.104L122.654 465.621Z" fill="#FFFFEB"/>
<path d="M119.851 419.044C119.851 419.822 119.384 420.601 118.449 421.069C116.424 422.159 113.308 422.159 111.283 421.069C110.349 420.446 109.726 419.667 109.881 419.044V412.345C109.881 411.566 110.349 410.787 111.283 410.32C113.308 409.23 116.424 409.23 118.449 410.32C119.384 410.943 120.007 411.722 119.851 412.345V419.044Z" fill="#DD936F"/>
<path d="M146.801 462.35C148.67 461.415 149.449 458.923 148.514 457.053L131.379 423.094C130.444 421.224 127.951 420.446 126.082 421.38C124.213 422.315 123.434 424.807 124.369 426.677L141.504 460.636C142.439 462.661 144.775 463.44 146.801 462.35Z" fill="#F9AB83"/>
<path d="M102.093 398.169L97.1082 417.486C96.6408 419.355 98.5102 420.913 100.224 420.134L111.596 415.305C112.53 414.838 113.153 413.903 112.998 412.812L109.259 393.808C108.792 391.782 106.143 391.315 105.053 393.029L102.405 397.546C102.249 397.702 102.093 397.858 102.093 398.169Z" fill="#943BBB"/>
<path d="M119.539 409.697C119.539 411.411 120.63 412.034 122.187 411.255C123.59 410.476 124.836 408.451 124.836 406.737C124.836 405.024 123.745 404.4 122.187 405.179C120.63 405.958 119.539 407.984 119.539 409.697Z" fill="#F9AB83"/>
<path d="M114.866 415.617C107.209 415.617 101.002 409.409 101.002 401.752C101.002 394.095 107.209 387.888 114.866 387.888C122.523 387.888 128.73 394.095 128.73 401.752C128.73 409.409 122.523 415.617 114.866 415.617Z" fill="#F9AB83"/>
<path d="M128.419 403.622C128.419 403.622 116.735 410.008 110.972 393.34C110.972 393.34 107.856 400.35 100.379 398.792C100.379 398.792 100.379 387.888 111.75 385.707C111.595 385.707 131.69 383.682 128.419 403.622Z" fill="#943BBB"/>
<path d="M121.877 404.245L116.892 423.561C116.425 425.431 118.294 426.988 120.008 426.209L131.379 421.38C132.314 420.913 132.937 419.978 132.781 418.888L129.043 399.883C128.575 397.858 125.927 397.39 124.837 399.104L122.188 403.622C122.033 403.777 122.033 403.933 121.877 404.245Z" fill="#943BBB"/>
<path d="M232.478 463.44C232.634 464.998 230.141 467.335 226.403 469.516C221.418 472.32 219.704 475.903 213.629 472.475C211.915 471.541 211.136 470.606 211.136 469.983V466.244C210.981 464.531 215.187 463.44 218.769 461.259C223.754 458.455 229.051 456.898 231.543 458.3C232.166 458.611 232.478 459.078 232.478 459.702V463.44Z" fill="black"/>
<path d="M226.403 465.621C231.387 462.817 234.036 459.702 231.543 458.3C229.051 456.898 223.754 458.455 218.769 461.259C213.785 464.063 207.553 465.154 213.629 468.581C219.704 472.008 221.573 468.425 226.403 465.621Z" fill="#2D0D60"/>
<path d="M218.769 453.938C218.925 455.496 216.433 457.832 212.694 460.013C207.709 462.817 205.996 466.4 199.92 462.973C198.207 462.038 197.428 461.104 197.428 460.48V456.742C197.272 455.028 201.478 453.938 205.061 451.757C210.046 448.953 215.342 447.395 217.835 448.797C218.458 449.109 218.769 449.576 218.769 450.199V453.938Z" fill="black"/>
<path d="M212.694 456.119C217.679 453.315 220.327 450.199 217.835 448.797C215.342 447.395 210.046 448.953 205.061 451.757C200.076 454.561 193.845 455.651 199.92 459.078C205.996 462.661 207.865 458.923 212.694 456.119Z" fill="#2D0D60"/>
<path d="M224.222 340.687C222.352 339.441 219.86 340.064 218.614 341.933L201.79 368.727C200.543 370.596 201.166 373.089 203.036 374.335C204.905 375.581 207.398 374.958 208.644 373.089L225.468 346.295C226.714 344.426 226.091 341.777 224.222 340.687Z" fill="#FCC4B7"/>
<path d="M213.161 369.973L207.709 378.541C205.84 381.501 201.945 382.28 199.141 380.566C196.181 378.697 195.402 374.802 197.116 371.998L202.568 363.431C202.568 363.275 209.422 360.782 213.161 369.973Z" fill="#293677"/>
<path d="M211.292 464.375C211.136 464.063 210.98 463.596 210.98 463.129V420.757C210.98 418.109 213.784 415.928 217.056 415.928C220.483 415.928 223.131 418.109 223.131 420.757V466.867C223.131 467.49 222.664 468.114 222.04 468.269C219.86 469.048 214.252 469.983 211.292 464.375Z" fill="#55D1FF"/>
<path d="M197.584 454.405C197.428 454.094 197.272 453.626 197.272 453.159L198.207 410.787C198.207 408.139 201.011 405.958 204.438 406.114C207.865 406.114 210.513 408.451 210.513 411.099L209.579 457.053C209.579 457.677 209.111 458.3 208.488 458.455C205.996 459.234 200.388 460.169 197.584 454.405Z" fill="#55D1FF"/>
<path d="M221.262 428.39C221.107 428.546 220.951 428.546 220.795 428.546C218.147 428.702 208.333 426.677 198.519 415.616C197.74 414.682 197.273 413.435 197.273 412.501V381.345C197.273 379.008 198.051 377.295 199.453 376.516L206.775 372.31C208.177 371.531 209.891 371.687 212.071 372.777L222.041 378.541C226.091 380.878 229.363 386.642 229.363 391.315V422.626C229.363 423.405 229.051 423.873 228.584 424.184L221.262 428.39Z" fill="#5258A6"/>
<path d="M218.458 380.41C218.458 381.189 217.99 381.968 216.9 382.591C214.875 383.682 211.603 383.682 209.578 382.591C208.488 381.968 208.02 381.189 208.02 380.41V373.556C208.02 372.777 208.488 371.998 209.578 371.375C211.603 370.285 214.875 370.285 216.9 371.375C217.99 371.998 218.458 372.777 218.458 373.556V380.41Z" fill="#F1AC85"/>
<path d="M213.318 376.983C205.489 376.983 199.142 370.637 199.142 362.808C199.142 354.978 205.489 348.632 213.318 348.632C221.147 348.632 227.494 354.978 227.494 362.808C227.494 370.637 221.147 376.983 213.318 376.983Z" fill="#FCC4B7"/>
<path d="M237.93 425.743C240.111 424.964 241.201 422.783 240.422 420.602L229.674 391.627C228.895 389.446 226.714 388.356 224.533 389.135C222.352 389.914 221.262 392.095 222.041 394.275L232.789 423.25C233.568 425.431 235.749 426.522 237.93 425.743Z" fill="#FCC4B7"/>
<path d="M221.572 399.727L218.301 390.069C217.21 386.797 218.924 383.214 222.195 382.124C225.466 381.034 229.049 382.747 230.14 386.018L233.411 395.677C233.411 395.677 231.074 402.531 221.572 399.727Z" fill="#293677"/>
<path fill-rule="evenodd" clip-rule="evenodd" d="M205.216 375.737C209.733 378.386 213.161 376.361 214.407 374.491C217.522 369.662 217.99 372.934 219.859 370.597C222.196 366.702 221.728 361.25 225 358.758C229.829 355.175 228.427 348.165 215.965 344.893C199.296 340.687 192.598 361.717 203.035 373.868C203.814 374.959 204.281 375.27 205.216 375.737Z" fill="#E58800"/>
<path d="M218.302 371.376C219.549 372.622 220.795 372.155 221.262 370.597C221.73 368.883 221.106 366.702 219.86 365.456C218.614 364.209 217.367 364.677 216.9 366.235C216.433 367.793 217.056 370.13 218.302 371.376Z" fill="#FCC4B7"/>
<path d="M290.74 539.305C292.298 540.395 294.635 540.084 295.725 538.37L311.926 515.471C313.016 513.913 312.705 511.576 310.991 510.486C309.433 509.395 307.097 509.707 306.006 511.421L289.805 534.32C288.715 535.878 289.182 538.059 290.74 539.305Z" fill="#FCC4B7"/>
<path d="M301.957 513.757L307.253 506.435C308.967 503.943 312.55 503.319 315.042 505.033C317.535 506.747 318.158 510.33 316.444 512.822L311.148 520.144C310.992 520.299 304.917 522.169 301.957 513.757Z" fill="#BDCEFA"/>
<path d="M320.183 543.199C320.027 543.51 319.715 543.822 319.404 543.978L300.555 554.726C298.53 555.973 295.57 554.726 294.168 552.234C292.61 549.586 293.077 546.626 295.258 545.38L317.067 532.917C317.534 532.606 318.313 532.762 318.625 533.073C320.027 534.631 323.142 538.37 320.183 543.199Z" fill="#5258A6"/>
<path d="M332.645 549.586C332.489 549.897 332.178 550.209 331.866 550.365L313.017 561.113C310.992 562.36 308.032 561.113 306.63 558.621C305.072 555.973 305.54 553.013 307.721 551.767L329.53 539.304C329.997 538.993 330.776 539.148 331.087 539.46C332.489 541.018 335.761 544.757 332.645 549.586Z" fill="#5258A6"/>
<path d="M303.048 582.142C303.203 583.7 299.465 584.635 296.349 586.504C291.987 588.997 287.314 590.399 284.977 589.152C284.354 588.841 284.198 588.374 284.198 587.906V585.414C284.043 584.012 286.223 581.675 289.495 578.559C293.078 574.977 295.414 572.796 300.867 575.911C302.424 576.846 303.048 577.469 303.048 578.092V582.142Z" fill="#010400"/>
<path d="M289.495 578.405C285.133 582.611 282.796 585.103 284.977 586.505C287.158 587.751 291.676 585.882 296.349 582.299C300.399 579.184 306.319 578.872 300.867 575.756C295.414 572.641 293.233 574.822 289.495 578.405Z" fill="#1C1C38"/>
<path d="M293.078 575.289C292.922 574.978 292.766 574.51 292.766 574.199V548.963C292.766 546.626 295.259 544.601 298.219 544.601C301.178 544.601 303.671 546.47 303.671 548.963V577.47C303.671 578.093 303.204 578.56 302.736 578.716C300.555 579.495 295.726 580.274 293.078 575.289Z" fill="#5258A6"/>
<path d="M330.776 551.767C330.62 551.922 330.465 551.922 330.309 551.922C327.972 552.078 319.249 550.209 310.681 540.55C309.902 539.772 309.434 538.681 309.434 537.746V510.174C309.434 508.149 310.213 506.591 311.304 505.968L317.847 502.229C319.093 501.45 320.651 501.606 322.52 502.696L331.399 507.837C334.982 509.862 337.942 515.003 337.942 519.053V546.782C337.942 547.405 337.786 547.872 337.319 548.184L330.776 551.767Z" fill="#FCFDFF"/>
<path d="M316.131 587.751C316.287 589.309 312.548 590.244 309.433 592.113C305.071 594.606 300.397 596.008 298.061 594.761C297.438 594.45 297.282 593.983 297.282 593.515V591.023C297.126 589.621 299.307 587.284 302.578 584.168C306.161 580.586 308.498 578.405 313.95 581.52C315.508 582.455 316.131 583.078 316.131 583.701V587.751Z" fill="#010400"/>
<path d="M302.58 584.168C298.218 588.374 295.881 590.867 298.062 592.269C300.243 593.515 304.761 591.646 309.434 588.063C313.484 584.947 319.404 584.636 313.952 581.52C308.499 578.405 306.163 580.586 302.58 584.168Z" fill="#1C1C38"/>
<path d="M306.008 581.053C305.852 580.741 305.696 580.274 305.696 579.962V554.726C305.696 552.39 308.189 550.365 311.148 550.365C314.108 550.365 316.601 552.234 316.601 554.726V583.234C316.601 583.857 316.133 584.324 315.666 584.48C313.641 585.103 308.656 586.038 306.008 581.053Z" fill="#5258A6"/>
<path d="M329.841 509.239C329.841 509.862 329.374 510.641 328.439 511.108C326.726 512.199 323.766 512.199 321.897 511.108C320.962 510.641 320.495 509.862 320.495 509.239V503.164C320.495 502.541 320.962 501.762 321.897 501.294C323.61 500.204 326.57 500.204 328.439 501.294C329.374 501.762 329.841 502.541 329.841 503.164V509.239Z" fill="#F1AC85"/>
<path d="M325.167 506.28C318.198 506.28 312.549 500.63 312.549 493.662C312.549 486.693 318.198 481.044 325.167 481.044C332.136 481.044 337.785 486.693 337.785 493.662C337.785 500.63 332.136 506.28 325.167 506.28Z" fill="#FCC4B7"/>
<path d="M332.023 503.631C331.244 502.852 329.997 501.294 329.374 499.425C329.374 499.269 329.374 499.269 329.374 499.113V493.038C329.374 491.792 329.063 490.701 328.44 489.611C327.972 488.676 327.038 488.053 325.947 488.053C325.947 488.053 315.822 492.415 312.083 484.159C311.771 483.536 312.083 482.757 312.862 482.601C313.641 482.445 314.575 481.822 315.666 480.109C315.977 479.641 316.445 479.485 316.912 479.641C317.847 479.953 319.716 479.953 321.43 477.928C321.585 477.616 321.897 477.616 322.208 477.616C324.078 477.616 330.776 477.928 334.359 480.576C335.138 481.199 347.6 491.948 333.425 503.631C333.113 503.943 332.334 503.943 332.023 503.631Z" fill="#331202"/>
<path d="M329.373 500.827C329.373 502.385 330.464 503.009 331.71 502.23C332.956 501.451 334.047 499.581 334.047 498.179C334.047 496.621 332.956 495.998 331.71 496.777C330.464 497.4 329.373 499.27 329.373 500.827Z" fill="#FCC4B7"/>
<path d="M293.7 543.978L316.132 556.907L333.424 547.405L310.369 534.319L293.7 543.978Z" fill="#BBBEB5"/>
<path d="M293.7 543.978L290.117 521.39L315.041 535.721L316.132 556.907L293.7 543.978Z" fill="#EAEEF1"/>
<path d="M313.328 547.717C314.886 548.807 317.222 548.496 318.313 546.938L334.514 524.038C335.604 522.481 335.293 520.144 333.735 519.054C332.177 517.963 329.84 518.275 328.75 519.832L312.549 542.732C311.303 544.29 311.77 546.626 313.328 547.717Z" fill="#FCC4B7"/>
<path d="M325.323 523.415L329.841 515.626C331.398 512.978 334.826 512.043 337.474 513.601C340.122 515.159 341.057 518.586 339.499 521.234L334.981 529.023C334.826 528.867 328.906 531.36 325.323 523.415Z" fill="#BDCEFA"/>
<defs>
<linearGradient id="paint0_linear_906_11256" x1="534.556" y1="72.4671" x2="607.674" y2="228.618" gradientUnits="userSpaceOnUse">
<stop stop-color="#E4F2FF"/>
<stop offset="0.3075" stop-color="#D7E6FD" stop-opacity="0.6923"/>
<stop offset="0.9993" stop-color="#BDCEFA" stop-opacity="0"/>
</linearGradient>
<linearGradient id="paint1_linear_906_11256" x1="484.866" y1="71.2402" x2="429.321" y2="296.808" gradientUnits="userSpaceOnUse">
<stop stop-color="#E4F2FF"/>
<stop offset="0.3075" stop-color="#D7E6FD" stop-opacity="0.6923"/>
<stop offset="0.9993" stop-color="#BDCEFA" stop-opacity="0"/>
</linearGradient>
<linearGradient id="paint2_linear_906_11256" x1="352.375" y1="-39.1223" x2="354.854" y2="88.5247" gradientUnits="userSpaceOnUse">
<stop stop-color="#E4F2FF"/>
<stop offset="0.3075" stop-color="#D7E6FD" stop-opacity="0.6923"/>
<stop offset="0.9993" stop-color="#BDCEFA" stop-opacity="0"/>
</linearGradient>
<linearGradient id="paint3_linear_906_11256" x1="532.947" y1="222.659" x2="555.254" y2="387.484" gradientUnits="userSpaceOnUse">
<stop stop-color="#E4F2FF"/>
<stop offset="0.3075" stop-color="#D7E6FD" stop-opacity="0.6923"/>
<stop offset="0.9993" stop-color="#BDCEFA" stop-opacity="0"/>
</linearGradient>
<linearGradient id="paint4_linear_906_11256" x1="26.3249" y1="159.784" x2="136.928" y2="379.431" gradientUnits="userSpaceOnUse">
<stop stop-color="#E4F2FF"/>
<stop offset="0.0555438" stop-color="#E1EFFF"/>
<stop offset="0.6478" stop-color="#C7D7FB"/>
<stop offset="0.9993" stop-color="#BDCEFA"/>
</linearGradient>
<linearGradient id="paint5_linear_906_11256" x1="3.00369" y1="50.7897" x2="181.629" y2="316.65" gradientUnits="userSpaceOnUse">
<stop stop-color="#E4F2FF"/>
<stop offset="0.0555438" stop-color="#E1EFFF"/>
<stop offset="0.6478" stop-color="#C7D7FB"/>
<stop offset="0.9993" stop-color="#BDCEFA"/>
</linearGradient>
<linearGradient id="paint6_linear_906_11256" x1="43.3024" y1="485.799" x2="279.133" y2="667.675" gradientUnits="userSpaceOnUse">
<stop stop-color="#E4F2FF"/>
<stop offset="0.0555438" stop-color="#E1EFFF"/>
<stop offset="0.6478" stop-color="#C7D7FB"/>
<stop offset="0.9993" stop-color="#BDCEFA"/>
</linearGradient>
<linearGradient id="paint7_linear_906_11256" x1="113.136" y1="484.283" x2="196.677" y2="559.993" gradientUnits="userSpaceOnUse">
<stop stop-color="#E4F2FF"/>
<stop offset="0.0555438" stop-color="#E1EFFF"/>
<stop offset="0.6478" stop-color="#C7D7FB"/>
<stop offset="0.9993" stop-color="#BDCEFA"/>
</linearGradient>
<linearGradient id="paint8_linear_906_11256" x1="5.88189" y1="557.437" x2="227.121" y2="713.606" gradientUnits="userSpaceOnUse">
<stop stop-color="#E4F2FF"/>
<stop offset="0.0555438" stop-color="#E1EFFF"/>
<stop offset="0.6478" stop-color="#C7D7FB"/>
<stop offset="0.9993" stop-color="#BDCEFA"/>
</linearGradient>
<linearGradient id="paint9_linear_906_11256" x1="41.2115" y1="548.808" x2="145.324" y2="614.644" gradientUnits="userSpaceOnUse">
<stop stop-color="#E4F2FF"/>
<stop offset="0.0555438" stop-color="#E1EFFF"/>
<stop offset="0.6478" stop-color="#C7D7FB"/>
<stop offset="0.9993" stop-color="#BDCEFA"/>
</linearGradient>
<linearGradient id="paint10_linear_906_11256" x1="-17.1785" y1="335.308" x2="377.196" y2="638.961" gradientUnits="userSpaceOnUse">
<stop stop-color="#E4F2FF"/>
<stop offset="0.0555438" stop-color="#E1EFFF"/>
<stop offset="0.6478" stop-color="#C7D7FB"/>
<stop offset="0.9993" stop-color="#BDCEFA"/>
</linearGradient>
<linearGradient id="paint11_linear_906_11256" x1="209.65" y1="555.444" x2="365.946" y2="533.359" gradientUnits="userSpaceOnUse">
<stop stop-color="#E4F2FF"/>
<stop offset="0.0555438" stop-color="#E1EFFF"/>
<stop offset="0.6478" stop-color="#C7D7FB"/>
<stop offset="0.9993" stop-color="#BDCEFA"/>
</linearGradient>
<linearGradient id="paint12_linear_906_11256" x1="312.326" y1="494.986" x2="504.712" y2="685.035" gradientUnits="userSpaceOnUse">
<stop stop-color="#E4F2FF"/>
<stop offset="0.0555438" stop-color="#E1EFFF"/>
<stop offset="0.6478" stop-color="#C7D7FB"/>
<stop offset="0.9993" stop-color="#BDCEFA"/>
</linearGradient>
<linearGradient id="paint13_linear_906_11256" x1="215.345" y1="565.453" x2="505.093" y2="481.333" gradientUnits="userSpaceOnUse">
<stop stop-color="#E4F2FF"/>
<stop offset="0.0555438" stop-color="#E1EFFF"/>
<stop offset="0.6478" stop-color="#C7D7FB"/>
<stop offset="0.9993" stop-color="#BDCEFA"/>
</linearGradient>
<linearGradient id="paint14_linear_906_11256" x1="1.68214" y1="371.805" x2="119.295" y2="375.7" gradientUnits="userSpaceOnUse">
<stop stop-color="#E4F2FF"/>
<stop offset="0.0555438" stop-color="#E1EFFF"/>
<stop offset="0.6478" stop-color="#C7D7FB"/>
<stop offset="0.9993" stop-color="#BDCEFA"/>
</linearGradient>
<linearGradient id="paint15_linear_906_11256" x1="129.994" y1="320.21" x2="221.124" y2="268.414" gradientUnits="userSpaceOnUse">
<stop stop-color="#E4F2FF"/>
<stop offset="0.0555438" stop-color="#E1EFFF"/>
<stop offset="0.6478" stop-color="#C7D7FB"/>
<stop offset="0.9993" stop-color="#BDCEFA"/>
</linearGradient>
<linearGradient id="paint16_linear_906_11256" x1="437.403" y1="260.773" x2="262.698" y2="260.773" gradientUnits="userSpaceOnUse">
<stop stop-color="#A4B7FA"/>
<stop offset="1" stop-color="#ADDDFF"/>
</linearGradient>
<linearGradient id="paint17_linear_906_11256" x1="282.474" y1="116.56" x2="465.513" y2="334.649" gradientUnits="userSpaceOnUse">
<stop stop-color="#E4F2FF"/>
<stop offset="0.0555438" stop-color="#E1EFFF"/>
<stop offset="0.6478" stop-color="#C7D7FB"/>
<stop offset="0.9993" stop-color="#BDCEFA"/>
</linearGradient>
<linearGradient id="paint18_linear_906_11256" x1="85.3769" y1="399.27" x2="367.265" y2="436.25" gradientUnits="userSpaceOnUse">
<stop stop-color="#E4F2FF"/>
<stop offset="0.0555438" stop-color="#E1EFFF"/>
<stop offset="0.6478" stop-color="#C7D7FB"/>
<stop offset="0.9993" stop-color="#BDCEFA"/>
</linearGradient>
<linearGradient id="paint19_linear_906_11256" x1="336.913" y1="223.729" x2="285.876" y2="223.729" gradientUnits="userSpaceOnUse">
<stop stop-color="#FCFDFF" stop-opacity="0"/>
<stop offset="0.796875" stop-color="white"/>
</linearGradient>
<linearGradient id="paint20_linear_906_11256" x1="336.913" y1="216.329" x2="285.876" y2="216.329" gradientUnits="userSpaceOnUse">
<stop stop-color="#FCFDFF" stop-opacity="0"/>
<stop offset="0.796875" stop-color="white"/>
</linearGradient>
<linearGradient id="paint21_linear_906_11256" x1="336.913" y1="208.852" x2="285.876" y2="208.852" gradientUnits="userSpaceOnUse">
<stop stop-color="#FCFDFF" stop-opacity="0"/>
<stop offset="0.796875" stop-color="white"/>
</linearGradient>
<linearGradient id="paint22_linear_906_11256" x1="320.873" y1="262.599" x2="282.034" y2="238.729" gradientUnits="userSpaceOnUse">
<stop stop-color="#FCFDFF" stop-opacity="0"/>
<stop offset="0.760417" stop-color="#F97F58"/>
</linearGradient>
<linearGradient id="paint23_linear_906_11256" x1="320.873" y1="255.122" x2="282.034" y2="231.252" gradientUnits="userSpaceOnUse">
<stop stop-color="#FCFDFF" stop-opacity="0"/>
<stop offset="0.760417" stop-color="#F97F58"/>
</linearGradient>
<linearGradient id="paint24_linear_906_11256" x1="320.873" y1="247.644" x2="282.034" y2="223.774" gradientUnits="userSpaceOnUse">
<stop stop-color="#FCFDFF" stop-opacity="0"/>
<stop offset="0.760417" stop-color="#F97F58"/>
</linearGradient>
<linearGradient id="paint25_linear_906_11256" x1="378.137" y1="278.731" x2="422.069" y2="308.515" gradientUnits="userSpaceOnUse">
<stop stop-color="#FCFDFF" stop-opacity="0"/>
<stop offset="0.807292" stop-color="#99CFFF"/>
</linearGradient>
<linearGradient id="paint26_linear_906_11256" x1="378.137" y1="286.053" x2="422.069" y2="315.837" gradientUnits="userSpaceOnUse">
<stop stop-color="#FCFDFF" stop-opacity="0"/>
<stop offset="0.807292" stop-color="#99CFFF"/>
</linearGradient>
<linearGradient id="paint27_linear_906_11256" x1="378.137" y1="293.53" x2="422.069" y2="323.314" gradientUnits="userSpaceOnUse">
<stop stop-color="#FCFDFF" stop-opacity="0"/>
<stop offset="0.807292" stop-color="#99CFFF"/>
</linearGradient>
<linearGradient id="paint28_linear_906_11256" x1="399.802" y1="219.711" x2="518.332" y2="428.189" gradientUnits="userSpaceOnUse">
<stop stop-color="#E4F2FF"/>
<stop offset="0.3075" stop-color="#D7E6FD" stop-opacity="0.6923"/>
<stop offset="0.9993" stop-color="#BDCEFA" stop-opacity="0"/>
</linearGradient>
<linearGradient id="paint29_linear_906_11256" x1="390.653" y1="248.611" x2="474.553" y2="392.594" gradientUnits="userSpaceOnUse">
<stop stop-color="#E4F2FF"/>
<stop offset="0.0555438" stop-color="#E1EFFF"/>
<stop offset="0.6478" stop-color="#C7D7FB"/>
<stop offset="0.9993" stop-color="#BDCEFA"/>
</linearGradient>
<linearGradient id="paint30_linear_906_11256" x1="413.366" y1="235.376" x2="497.266" y2="379.359" gradientUnits="userSpaceOnUse">
<stop stop-color="#E4F2FF"/>
<stop offset="0.0555438" stop-color="#E1EFFF"/>
<stop offset="0.6478" stop-color="#C7D7FB"/>
<stop offset="0.9993" stop-color="#BDCEFA"/>
</linearGradient>
<linearGradient id="paint31_linear_906_11256" x1="188.083" y1="110.997" x2="319.467" y2="251.559" gradientUnits="userSpaceOnUse">
<stop stop-color="#E4F2FF"/>
<stop offset="0.3075" stop-color="#D7E6FD" stop-opacity="0.6923"/>
<stop offset="0.9993" stop-color="white" stop-opacity="0.66"/>
</linearGradient>
<linearGradient id="paint32_linear_906_11256" x1="172.466" y1="151.596" x2="300.837" y2="264.944" gradientUnits="userSpaceOnUse">
<stop stop-color="#E4F2FF"/>
<stop offset="0.0555438" stop-color="#E1EFFF"/>
<stop offset="0.6478" stop-color="#C7D7FB"/>
<stop offset="0.9993" stop-color="#BDCEFA"/>
</linearGradient>
<linearGradient id="paint33_linear_906_11256" x1="180.001" y1="143.062" x2="308.372" y2="256.41" gradientUnits="userSpaceOnUse">
<stop stop-color="#E4F2FF"/>
<stop offset="0.0555438" stop-color="#E1EFFF"/>
<stop offset="0.6478" stop-color="#C7D7FB"/>
<stop offset="0.9993" stop-color="#BDCEFA"/>
</linearGradient>
<linearGradient id="paint34_linear_906_11256" x1="199.744" y1="120.703" x2="328.114" y2="234.051" gradientUnits="userSpaceOnUse">
<stop stop-color="#E4F2FF"/>
<stop offset="0.0555438" stop-color="#E1EFFF"/>
<stop offset="0.6478" stop-color="#C7D7FB"/>
<stop offset="0.9993" stop-color="#BDCEFA"/>
</linearGradient>
<linearGradient id="paint35_linear_906_11256" x1="194.566" y1="126.568" x2="322.936" y2="239.915" gradientUnits="userSpaceOnUse">
<stop stop-color="#E4F2FF"/>
<stop offset="0.0555438" stop-color="#E1EFFF"/>
<stop offset="0.6478" stop-color="#C7D7FB"/>
<stop offset="0.9993" stop-color="#BDCEFA"/>
</linearGradient>
<linearGradient id="paint36_linear_906_11256" x1="189.386" y1="132.433" x2="317.756" y2="245.781" gradientUnits="userSpaceOnUse">
<stop stop-color="#E4F2FF"/>
<stop offset="0.0555438" stop-color="#E1EFFF"/>
<stop offset="0.6478" stop-color="#C7D7FB"/>
<stop offset="0.9993" stop-color="#BDCEFA"/>
</linearGradient>
<linearGradient id="paint37_linear_906_11256" x1="484.442" y1="539.573" x2="614.368" y2="801.472" gradientUnits="userSpaceOnUse">
<stop stop-color="#E4F2FF"/>
<stop offset="0.0555438" stop-color="#E1EFFF"/>
<stop offset="0.6478" stop-color="#C7D7FB"/>
<stop offset="0.9993" stop-color="#BDCEFA"/>
</linearGradient>
<linearGradient id="paint38_linear_906_11256" x1="500.242" y1="488.884" x2="617.945" y2="655.63" gradientUnits="userSpaceOnUse">
<stop stop-color="#E4F2FF"/>
<stop offset="0.0555438" stop-color="#E1EFFF"/>
<stop offset="0.6478" stop-color="#C7D7FB"/>
<stop offset="0.9993" stop-color="#BDCEFA"/>
</linearGradient>
<linearGradient id="paint39_linear_906_11256" x1="81.6833" y1="440.546" x2="111.705" y2="428.83" gradientUnits="userSpaceOnUse">
<stop stop-color="#E8E9FF"/>
<stop offset="0.9996" stop-color="#C0C0F6"/>
</linearGradient>
</defs>
</svg>
